<svg width="91" height="46" viewBox="0 0 91 46" fill="none" xmlns="http://www.w3.org/2000/svg">
<path d="M86.6922 26.8402C86.5928 25.9433 86.2488 25.2082 85.8677 24.642C84.1632 22.3926 81.2197 21.2096 81.2197 21.2096C81.2197 21.2096 79.7718 16.8752 79.384 15.3315C78.9962 13.7902 77.8588 13.256 77.8588 13.256L77.8509 12.3879L77.3092 12.2128L77.295 10.9118L64.7125 2.21776L50.7394 2.16336L45.8617 1.51986L44.2035 1.34135L8.25802 9.57726L7.80312 31.3266L10.5816 31.9118L10.3234 34.3273L10.8239 37.2188L15.3112 37.5469L14.682 33.0318L37.9744 34.7806L37.6065 37.1514L34.8642 39.5213L65.0971 43.9796L70.6833 40.6335L79.14 39.4578L84.3435 40.1052L88.2198 38.6501C88.2198 38.6501 88.236 37.6724 88.336 32.9137C88.3816 30.6825 88.301 29.5963 88.0542 28.7737C87.8628 28.2741 87.4761 27.5963 86.6922 26.8402Z" fill="white"/>
<path d="M89.8155 41.7094L85.6221 41.3878C85.839 40.9415 86.0297 40.3678 86.1811 39.7306L86.8051 39.6953C86.8051 39.6953 88.2109 39.6802 88.2198 38.6592C88.2198 38.6592 87.5187 38.734 84.5388 39.0416C81.5588 39.3491 67.583 39.755 67.583 39.755L64.7099 39.7813L64.6734 39.7794L64.6734 39.7817L64.6461 39.7819C64.6461 39.7819 64.3955 36.0586 63.5031 33.9066L74.1808 34.652L73.8229 34.1289L72.2512 33.9451C72.2679 33.2841 72.102 31.0913 69.35 29.1637C66.0659 26.8627 61.4018 26.3949 59.0749 26.6008C56.748 26.8089 56.3081 27.0454 56.3081 27.0454C56.5281 26.9272 57.2565 27.0982 57.5188 27.1186C59.4457 27.2742 61.6309 27.5253 63.2412 28.6886C64.5945 29.6652 65.1934 31.3687 65.1309 33.0053C65.131 33.0099 65.1337 33.0577 65.1319 33.1101L62.8873 32.8481C62.8873 32.8481 62.6621 31.6448 59.6315 31.39C56.6008 31.1352 47.8287 30.9602 47.8287 30.9602L47.5194 20.3263C47.5194 20.3263 47.471 11.0573 48.4057 6.87421C49.1697 3.45381 49.9386 2.82242 54.0107 2.3317C54.0564 2.35178 54.1044 2.36957 54.1502 2.38966L62.762 2.72328L55.3648 3.14417C55.4382 3.20274 55.5072 3.26364 55.5761 3.32453L64.6956 3.61704L56.2753 4.04046C56.3283 4.10378 56.3813 4.16937 56.4343 4.23497L66.4128 4.51278L56.9422 4.95037C56.9838 5.0138 57.0231 5.07952 57.0624 5.14524L67.3713 5.41774L57.4587 5.86166C57.4911 5.92517 57.5213 5.98869 57.5538 6.0522L68.1133 6.32241L57.8749 6.77387C57.9005 6.83516 57.9239 6.89647 57.9495 6.95776L68.5295 7.23234L58.2114 7.68909C58.2302 7.74816 58.2489 7.80495 58.2677 7.86175L68.9434 8.14001L58.4864 8.60486C58.5006 8.65942 58.5147 8.7117 58.5288 8.76398L69.2525 9.04864L58.7067 9.52342C58.7162 9.57119 58.7258 9.61895 58.7353 9.66443L69.557 9.95731L58.8746 10.4425C58.9376 10.8452 58.958 11.0866 58.958 11.0866L77.2905 10.9188C76.5187 9.00264 74.2353 5.49392 71.0793 3.49936C68.2763 1.72716 67.8414 2.0137 57.2501 1.99443L45.8549 1.52907L45.7976 32.3643L45.7982 32.4326L59.9072 33.6296C59.8433 33.8695 59.7866 34.1548 59.7327 34.4812L46.2462 33.5838L59.6261 35.2888C59.5024 36.4612 59.4464 38.0567 59.4956 40.1936C44.9569 38.8524 44.9569 38.8524 44.9569 38.8524C44.9569 38.8524 45.2387 34.787 44.2602 32.6859L12.4784 29.789L44.9665 31.9321L44.3504 1.4722L44.3048 1.47034L1.06717 10.6457L7.59129 9.68821L7.78471 23.6022L8.25348 9.59101L42.7538 4.53108L43.3249 28.8459L38.8468 28.7843L1.69011 29.1631L37.8671 33.0225L37.7838 33.8868L3.26187 30.6025L10.5815 31.9141C10.4162 32.5218 10.3146 33.3772 10.3233 34.3296C10.3294 34.9903 10.3874 35.605 10.481 36.1237L7.24208 36.2627C6.6567 36.2886 6.61435 37.1389 7.19389 37.2225L13.1764 38.0906C13.1993 38.0972 13.2221 38.0993 13.2449 38.1013L59.9075 44.8679C59.9417 44.8722 59.9782 44.8741 60.0123 44.8715L89.8015 42.6689C90.3867 42.627 90.3993 41.7702 89.8155 41.7094ZM65.9007 30.4735C66.1092 29.6035 68.4308 30.3068 70.1368 31.23C71.4788 31.956 71.799 33.3385 71.8748 33.8961L66.0261 33.2113C65.8474 32.6182 65.7361 31.1586 65.9007 30.4735ZM78.2397 40.1884C78.3033 40.4157 78.3713 40.6293 78.4438 40.8337L73.5641 40.4591L78.2397 40.1884ZM61.9478 34.7617C62.8592 34.7533 63.6153 36.4531 63.6346 38.5584C63.6538 40.6637 62.929 42.3771 62.0176 42.3854C61.1062 42.3937 60.3501 40.694 60.3308 38.5887C60.3115 36.4834 61.0364 34.77 61.9478 34.7617ZM42.6746 33.9697C43.2624 33.9643 43.749 35.3384 43.7645 37.0404C43.7801 38.7401 43.3165 40.1253 42.731 40.1306C42.1454 40.136 41.6566 38.7619 41.641 37.0599C41.6254 35.3579 42.089 33.975 42.6746 33.9697ZM38.9711 33.8942C39.5156 33.8892 39.9694 35.1679 39.9839 36.7492C39.9983 38.3304 39.5681 39.6172 39.0235 39.6222C38.479 39.6272 38.0252 38.3485 38.0107 36.7672C37.9962 35.186 38.4265 33.8992 38.9711 33.8942ZM13.3994 32.5765C13.7571 32.5732 14.0576 33.5366 14.0685 34.7282C14.0794 35.9199 13.7989 36.8886 13.4389 36.8919C13.0812 36.8952 12.7807 35.9318 12.7698 34.7401C12.7612 33.5485 13.0417 32.5798 13.3994 32.5765ZM11.1385 32.5197C11.4711 32.5167 11.7505 33.4119 11.7606 34.5192C11.7708 35.6265 11.5101 36.5267 11.1752 36.5298C10.8425 36.5328 10.5655 35.6376 10.5553 34.5303C10.5452 33.4229 10.8058 32.5227 11.1385 32.5197ZM29.0197 35.3274L18.5375 35.7788C18.5772 35.3911 18.5961 34.9602 18.5918 34.4954C18.5908 34.3838 18.5875 34.2744 18.5842 34.1674L37.3988 35.6312C37.3845 35.8159 37.3749 36.0074 37.3675 36.2012L29.0903 35.3313C29.0675 35.327 29.0447 35.3249 29.0197 35.3274Z" fill="#050505"/>
<path d="M81.7416 30.6885L76.9087 30.9424C76.9232 31.0334 76.9377 31.1244 76.9499 31.2177L81.7151 31.2744L81.7416 30.6885Z" fill="#1D191A"/>
<path d="M81.7036 31.5434L77.0346 31.789C77.0491 31.8823 77.0614 31.9756 77.0736 32.0689L81.6792 32.1224L81.7036 31.5434Z" fill="#1D191A"/>
<path d="M81.7768 29.8338L76.773 30.0961C76.7875 30.1848 76.802 30.2758 76.8165 30.3669L81.7526 30.4265L81.7768 29.8338Z" fill="#1D191A"/>
<path d="M81.8882 27.2693L76.3128 27.5618C76.3295 27.6437 76.3462 27.7279 76.3629 27.812L81.8642 27.8779L81.8882 27.2693Z" fill="#1D191A"/>
<path d="M81.6307 33.2531L77.2601 33.4845C77.2723 33.5801 77.2823 33.6757 77.2946 33.7736L81.6063 33.823L81.6307 33.2531Z" fill="#1D191A"/>
<path d="M81.8502 28.1241L76.4728 28.4057C76.4896 28.4899 76.504 28.5764 76.5208 28.6628L81.8238 28.7259L81.8502 28.1241Z" fill="#1D191A"/>
<path d="M81.8145 28.9789L76.6285 29.2519C76.643 29.3384 76.6598 29.4271 76.6742 29.5158L81.7881 29.5761L81.8145 28.9789Z" fill="#1D191A"/>
<path d="M75.7158 30.3541C75.7038 30.2859 75.694 30.2199 75.682 30.1539L72.6028 30.3166C72.6028 30.3166 72.6028 30.3166 72.6028 30.3188L75.7158 30.3541Z" fill="#1D191A"/>
<path d="M76.0924 32.9073C76.0826 32.8344 76.0728 32.7639 76.0631 32.6933L73.0612 32.8507C73.0636 32.8575 73.0636 32.8643 73.066 32.8712L76.0924 32.9073Z" fill="#1D191A"/>
<path d="M85.1758 30.5068L82.8276 30.6308L82.7994 31.2873L85.1535 31.3159C85.1624 31.0378 85.169 30.7666 85.1758 30.5068Z" fill="#1D191A"/>
<path d="M75.9779 32.0562C75.9681 31.9856 75.9584 31.9151 75.9486 31.8468L72.9104 32.0068C72.9104 32.0113 72.9128 32.0159 72.9128 32.0204L75.9779 32.0562Z" fill="#1D191A"/>
<path d="M81.9235 26.4281L81.436 26.4394L76.1384 26.7158C76.155 26.7931 76.1717 26.875 76.1884 26.9591L81.8971 27.0276L81.9235 26.4281Z" fill="#1D191A"/>
<path d="M81.4395 37.7666L81.5127 36.0524C80.2325 36.0937 78.7882 36.1411 77.5262 36.18C77.5747 36.7492 77.6165 37.3299 77.6515 37.9175C78.8656 37.8722 80.3211 37.8133 81.4395 37.7666Z" fill="#1D191A"/>
<path d="M81.6661 32.3982L77.1497 32.6355C77.162 32.7288 77.1742 32.8244 77.1865 32.92L81.6395 32.9727L81.6661 32.3982Z" fill="#1D191A"/>
<path d="M74.0157 37.0439C74.293 37.4697 74.7786 37.9894 75.4963 37.9828C75.7105 37.9808 76.0887 37.9705 76.5693 37.9547C76.5343 37.3672 76.4925 36.7842 76.4417 36.215C75.2048 36.2537 74.3095 36.2824 74.2138 36.2833C73.8857 36.2863 73.6921 36.288 74.0157 37.0439Z" fill="#1D191A"/>
<path d="M85.1518 31.3615L82.79 31.4856L82.7618 32.1353L85.1227 32.1638C85.1339 31.8949 85.1429 31.6259 85.1518 31.3615Z" fill="#1D191A"/>
<path d="M72.483 26.9087C72.4807 26.911 72.4784 26.9133 72.4762 26.9156L75.081 26.9464C75.069 26.8873 75.0571 26.8305 75.0452 26.7736L72.483 26.9087Z" fill="#1D191A"/>
<path d="M75.2553 27.7971C75.2434 27.7357 75.2314 27.6766 75.2195 27.6174L72.4318 27.7637L75.2553 27.7971Z" fill="#1D191A"/>
<path d="M75.538 29.3076L72.5339 29.465L75.5717 29.501C75.5597 29.4373 75.55 29.3713 75.538 29.3076Z" fill="#1D191A"/>
<path d="M85.0877 33.0688L82.7168 33.193L82.6884 33.8313L85.0494 33.8598C85.0653 33.6068 85.0765 33.3401 85.0877 33.0688Z" fill="#1D191A"/>
<path d="M85.1977 29.652L82.8632 29.7736L82.8351 30.4347L85.1755 30.4634C85.1866 30.1785 85.1932 29.905 85.1977 29.652Z" fill="#1D191A"/>
<path d="M82.5282 37.7087C82.6534 37.7007 82.7741 37.6928 82.888 37.6849C83.2022 37.6615 83.4707 37.6135 83.7002 37.5476C84.0972 37.3594 84.631 36.9284 84.859 35.9465C84.8499 35.9443 84.8408 35.9444 84.8294 35.9445C84.4581 35.957 83.6335 35.9828 82.5993 36.0173L82.5282 37.7087Z" fill="#1D191A"/>
<path d="M76.2003 33.7586C76.1905 33.6857 76.183 33.6129 76.1733 33.5401L73.217 33.697C73.2194 33.7061 73.2195 33.7152 73.2218 33.7243L76.2003 33.7586Z" fill="#1D191A"/>
<path d="M75.8514 31.2051C75.8417 31.1368 75.8296 31.0685 75.8199 31.0003L72.7566 31.1605C72.7566 31.1627 72.7566 31.165 72.7589 31.1673L75.8514 31.2051Z" fill="#1D191A"/>
<path d="M85.2294 28.1342C85.231 28.0681 85.2282 28.0066 85.2277 27.9473L82.9387 28.0663L82.9084 28.7387L85.2169 28.7655C85.2247 28.3712 85.2294 28.1342 85.2294 28.1342Z" fill="#1D191A"/>
<path d="M85.1038 27.0986L82.9743 27.2092L82.9441 27.8885L85.2252 27.9155C85.2176 27.5806 85.1696 27.3122 85.1038 27.0986Z" fill="#1D191A"/>
<path d="M75.3819 28.4636L72.4826 28.6154L75.4178 28.6501C75.4058 28.5864 75.3939 28.525 75.3819 28.4636Z" fill="#1D191A"/>
<path d="M85.2176 28.7996L82.9013 28.9211L82.8732 29.589L85.2 29.6156C85.2062 29.3033 85.2128 29.0276 85.2176 28.7996Z" fill="#1D191A"/>
<path d="M84.6459 26.3667L83.0124 26.4022L82.9841 27.0404L85.0943 27.0667C84.9208 26.5351 84.6459 26.3667 84.6459 26.3667Z" fill="#1D191A"/>
<path d="M85.1235 32.2163L82.7548 32.3405L82.7266 32.9856L85.0921 33.0141C85.1033 32.7497 85.1123 32.483 85.1235 32.2163Z" fill="#1D191A"/>
<path d="M70.3721 13.6117L72.094 21.2454C76.3157 21.1748 80.4213 21.1236 80.4213 21.1236L78.4945 14.2574C78.0981 14.0149 77.6175 13.7846 77.1475 13.7183C76.6524 13.6476 73.6169 13.6207 70.3721 13.6117Z" fill="#1D191A"/>
<path d="M69.7385 13.6107C65.8055 13.6034 61.793 13.6219 61.793 13.6219C61.793 13.6219 59.7603 13.6063 60.1164 15.6698C60.4748 17.7332 61.009 20.5766 61.009 20.5766C61.009 20.5766 61.4923 21.6022 63.1864 21.4613C63.9696 21.3972 67.7104 21.3197 71.5084 21.2553L69.7385 13.6107Z" fill="#1D191A"/>
<path d="M58.2475 15.3564C58.2475 15.3564 57.7459 15.3245 57.0286 15.3675C56.3112 15.4106 56.2123 16.307 56.2123 16.307C56.2123 16.307 56.251 20.5381 56.2601 21.5315C56.2692 22.5249 56.8068 22.5063 56.8068 22.5063C56.8068 22.5063 57.5265 22.7139 58.7093 22.7395C59.8945 22.7651 59.815 22.0481 59.6915 20.2559C59.568 18.4638 59.0083 16.0649 59.0083 16.0649C58.8538 15.3668 58.2475 15.3564 58.2475 15.3564Z" fill="#1D191A"/>
<path d="M51.6323 25.026C52.0272 24.8538 52.291 24.5483 52.2879 24.2043L52.2148 16.2183C52.2099 15.6874 51.5778 15.3331 50.8152 15.4244L50.3896 15.4762C49.775 15.5502 49.2655 15.8944 49.112 16.3014C49.3025 16.2039 49.5229 16.1358 49.7596 16.1086L50.1853 16.0568C50.9478 15.9655 51.5799 16.3198 51.5848 16.8507L51.6579 24.8367C51.6585 24.9005 51.6499 24.9643 51.6323 25.026Z" fill="#1D191A"/>
<path d="M54.3739 11.1672L54.9636 11.1185C54.9636 11.1185 54.6673 7.37285 52.7643 5.84078C52.0366 5.25727 51.6036 5.50733 51.3442 6.03835C51.5761 5.98154 51.8662 6.06547 52.229 6.35838C53.7211 7.55924 54.2252 10.1135 54.3739 11.1672Z" fill="#1D191A"/>
<path d="M67.5033 30.5364C67.7881 30.7753 67.9761 31.1519 67.98 31.578C67.9867 32.3071 67.4567 32.9044 66.7982 32.9104C66.7389 32.9109 66.6796 32.9046 66.6226 32.896C66.8247 33.0651 67.0785 33.1676 67.3519 33.1651C68.0104 33.1591 68.5404 32.5618 68.5338 31.8327C68.5277 31.1696 68.0807 30.6246 67.5033 30.5364Z" fill="#1D191A"/>
<path d="M69.7311 31.236C69.7678 31.2676 69.8045 31.2992 69.8391 31.3376C70.2418 31.7737 70.2484 32.4891 69.8537 32.9325C69.6078 33.2082 69.267 33.3161 68.9451 33.2507C69.1173 33.3904 69.3277 33.4751 69.5578 33.473C70.1206 33.4678 70.5717 32.9578 70.566 32.3358C70.5655 31.7844 70.2036 31.332 69.7311 31.236Z" fill="#1D191A"/>
<path d="M87.6977 32.163C87.545 32.4128 87.3181 32.5174 87.0944 32.4762C87.2185 32.5912 87.3695 32.6559 87.5243 32.6454C87.9092 32.6191 88.1898 32.1585 88.153 31.6188C88.1212 31.1406 87.8489 30.7603 87.5224 30.6949C87.55 30.7197 87.5776 30.7468 87.6029 30.7785C87.9002 31.1426 87.9446 31.762 87.6977 32.163Z" fill="#1D191A"/>
<path d="M87.5026 33.9992C89.1194 33.3896 88.3358 32.9183 88.3358 32.9183L86.3139 33.5839C86.3108 33.5019 86.3049 33.3516 86.2986 33.1648C86.5878 33.1417 86.7988 32.7934 86.7723 32.3835C86.7514 32.0897 86.6124 31.8449 86.4291 31.7372C86.6557 31.1039 87.1432 30.0923 87.461 29.4536C87.461 29.4536 87.3054 29.1406 86.9851 28.7516C86.8169 28.5458 86.6029 28.3199 86.3434 28.1035C86.2745 28.0403 86.2033 27.9749 86.1321 27.9118C86.1295 27.8845 86.127 27.8594 86.1245 27.8321C86.1249 27.8754 86.1228 27.9005 86.1229 27.9027C86.1183 27.9005 86.116 27.896 86.1114 27.8937C86.0947 28.8099 86.0378 31.5562 85.9284 33.7903C85.915 34.0707 85.8993 34.3442 85.8857 34.6019C86.2945 34.4523 86.8349 34.2514 87.5026 33.9992ZM86.3058 32.2032C86.3095 32.1165 86.347 31.9817 86.4025 31.8172C86.5828 32.0981 86.5981 32.5195 86.4275 32.8013C86.3893 32.8632 86.3441 32.9092 86.2966 32.9461C86.2921 32.7 86.2942 32.4311 86.3058 32.2032Z" fill="#1D191A"/>
<path d="M77.3091 12.2151L77.3012 11.347L62.3243 11.917L77.3091 12.2151Z" fill="#1D191A"/>
<path d="M77.8584 13.2583L77.8504 12.3902L62.3336 12.9674L77.8584 13.2583Z" fill="#1D191A"/>
<path d="M13.7204 36.3037C13.8421 35.9084 13.9167 35.3494 13.911 34.7274C13.9051 34.0758 13.8132 33.4933 13.6728 33.0981C13.4646 33.2549 13.3111 33.9126 13.3183 34.6986C13.3257 35.5075 13.5005 36.1781 13.7204 36.3037Z" fill="#1D191A"/>
<path d="M43.1948 39.2902C43.397 38.7255 43.5196 37.9268 43.5115 37.0405C43.503 36.1109 43.3518 35.2783 43.1233 34.7153C42.7813 34.9395 42.5301 35.8783 42.5404 36.9993C42.5487 38.1568 42.8332 39.1112 43.1948 39.2902Z" fill="#1D191A"/>
<path d="M39.4538 38.8412C39.6404 38.3177 39.7543 37.5739 39.7468 36.749C39.7389 35.8832 39.5996 35.1098 39.3852 34.5876C39.0658 34.7956 38.8346 35.6682 38.8441 36.7117C38.8539 37.7872 39.1173 38.6757 39.4538 38.8412Z" fill="#1D191A"/>
<path d="M62.7419 41.3465C63.0568 40.6487 63.2482 39.658 63.2382 38.562C63.2276 37.4114 62.9972 36.3813 62.6399 35.685C62.107 35.9633 61.7143 37.1245 61.727 38.5143C61.7423 39.9429 62.1793 41.1261 62.7419 41.3465Z" fill="#1D191A"/>
<path d="M11.439 35.9873C11.5542 35.6194 11.6223 35.0992 11.617 34.5228C11.6115 33.9167 11.5245 33.3752 11.3935 33.0072C11.1989 33.1526 11.0587 33.7645 11.0653 34.4937C11.0722 35.2455 11.2329 35.8684 11.439 35.9873Z" fill="#1D191A"/>
<path d="M65.639 22.054L74.3455 22.2797L64.9294 22.6963L65.4029 22.8993L76.0627 23.1777L66.9996 23.5797L67.5738 23.825L77.1282 24.0794L69.0219 24.443L69.6761 24.7218L78.9525 24.9742L71.1035 25.3308L72.6248 25.98C72.6248 25.98 74.9527 25.6374 78.0025 25.4955C80.5809 25.3762 85.6908 25.5118 85.6908 25.5118C85.6908 25.5118 83.0713 21.8785 80.0617 21.6873C77.7726 21.5396 69.4906 21.882 65.639 22.054Z" fill="#1D191A"/>
<path d="M41.7803 23.9017L41.722 22.7652L22.4385 24.3362L41.7803 23.9017Z" fill="#1D191A"/>
<path d="M41.8576 27.6084L41.8176 26.4717L22.3852 27.7114L41.8576 27.6084Z" fill="#1D191A"/>
<path d="M41.7427 22.0494L41.6731 20.913L22.464 22.6475L41.7427 22.0494Z" fill="#1D191A"/>
<path d="M41.8177 25.7561L41.7686 24.6173L22.4107 26.0226L41.8177 25.7561Z" fill="#1D191A"/>
<path d="M41.5508 12.7795L41.4311 11.6481L22.5941 14.2085L41.5508 12.7795Z" fill="#1D191A"/>
<path d="M41.2869 6.0895L22.6709 9.14466L41.4385 7.2206L41.2869 6.0895Z" fill="#1D191A"/>
<path d="M41.7051 20.195L41.6241 19.0587L22.4894 20.9611L41.7051 20.195Z" fill="#1D191A"/>
<path d="M41.4761 9.07274L41.3358 7.94381L22.6455 10.8333L41.4761 9.07274Z" fill="#1D191A"/>
<path d="M41.5132 10.9272L41.3843 9.79593L22.6195 12.5198L41.5132 10.9272Z" fill="#1D191A"/>
<path d="M41.6657 18.3406L41.5756 17.2066L22.5154 19.2723L41.6657 18.3406Z" fill="#1D191A"/>
<path d="M41.5907 14.6339L41.4801 13.5024L22.5687 15.8972L41.5907 14.6339Z" fill="#1D191A"/>
<path d="M41.6281 16.4883L41.5289 15.3545L22.5408 17.5836L41.6281 16.4883Z" fill="#1D191A"/>
</svg>
