<svg width="80" height="35" viewBox="0 0 80 35" fill="none" xmlns="http://www.w3.org/2000/svg">
<path d="M24.3301 8.96375L21.7983 10.3832L20.9988 10.8593L19.0821 12.0915L18.417 12.4072L17.6394 12.584L6.04153 15.0314L4.65656 25.1989L57.948 30.6916L60.8126 28.7001L62.009 28.537L78.1838 19.3581L62.8848 16.0253L54.9047 11.935L46.9856 7.35641L41.5508 5.31515C41.5508 5.31515 39.3212 5.19205 39.2569 5.18481C39.1926 5.17756 24.3301 8.96375 24.3301 8.96375Z" fill="white"/>
<path d="M6.16565 20.4461L6.07625 21.2391L6.51454 21.2195L6.60394 20.4265L6.16565 20.4461Z" fill="#050505"/>
<path d="M6.70911 20.4046L6.61971 21.1976L7.058 21.178L7.1474 20.385L6.70911 20.4046Z" fill="#050505"/>
<path d="M9.57897 20.0968L9.11297 20.1173L9.01808 20.959L9.48408 20.9385L9.57897 20.0968Z" fill="#050505"/>
<path d="M9.00181 20.1422L8.53582 20.1627L8.44093 21.0044L8.90692 20.9839L9.00181 20.1422Z" fill="#050505"/>
<path d="M10.906 19.8774L10.8054 20.7697L11.2974 20.7463L11.3977 19.8559L10.906 19.8774Z" fill="#050505"/>
<path d="M12.0086 19.8103L11.5168 19.8318L11.4164 20.7223L11.9082 20.7008L12.0086 19.8103Z" fill="#050505"/>
<path d="M13.2781 19.5943L13.172 20.5354L13.6898 20.5109L13.7956 19.5717L13.2781 19.5943Z" fill="#050505"/>
<path d="M14.4407 19.522L13.9212 19.5444L13.8153 20.4835L14.3348 20.4612L14.4407 19.522Z" fill="#050505"/>
<path d="M16.8713 19.224L16.3241 19.2471L16.2125 20.2369L16.7599 20.2118L16.8713 19.224Z" fill="#050505"/>
<path d="M15.6476 19.3011L15.5362 20.2889L16.0817 20.2636L16.193 19.2757L15.6476 19.3011Z" fill="#050505"/>
<path d="M17.8994 20.0344L18.4726 20.0082L18.5895 18.9717L18.0165 18.9959L17.8994 20.0344Z" fill="#050505"/>
<path d="M18.7267 18.9418L18.6099 19.9783L19.1828 19.9542L19.2999 18.9157L18.7267 18.9418Z" fill="#050505"/>
<path d="M21.0063 19.7218L21.6072 19.6948L21.7295 18.6095L21.1288 18.6345L21.0063 19.7218Z" fill="#050505"/>
<path d="M20.3845 18.6926L20.2619 19.7798L20.8609 19.7527L20.9834 18.6655L20.3845 18.6926Z" fill="#050505"/>
<path d="M24.1582 18.3011L23.5315 18.3291L23.4034 19.465L24.0301 19.437L24.1582 18.3011Z" fill="#050505"/>
<path d="M23.3799 18.3613L22.7512 18.389L22.6232 19.525L23.2518 19.4972L23.3799 18.3613Z" fill="#050505"/>
<path d="M26.5883 17.993L25.9339 18.0219L25.8003 19.2065L26.4547 19.1776L26.5883 17.993Z" fill="#050505"/>
<path d="M25.1214 18.0862L24.9881 19.2689L25.6405 19.2398L25.7738 18.0571L25.1214 18.0862Z" fill="#050505"/>
<path d="M28.3363 17.7164L28.1972 18.9498L28.8774 18.9199L29.0164 17.6865L28.3363 17.7164Z" fill="#050505"/>
<path d="M27.3511 19.0142L28.0312 18.9843L28.1702 17.751L27.4901 17.7809L27.3511 19.0142Z" fill="#050505"/>
<path d="M49.5262 21.7194L49.5003 20.9174L5.17258 22.7433L49.5262 21.7194Z" fill="#050505"/>
<path d="M37.334 23.6461C37.2288 23.6342 37.1351 23.7124 37.1235 23.8157L37.1039 24.0069C37.092 24.1121 37.1703 24.2057 37.2736 24.2174C37.3788 24.2292 37.4724 24.151 37.4841 24.0477L37.5034 23.8585C37.5153 23.7533 37.4392 23.6579 37.334 23.6461Z" fill="#050505"/>
<path d="M36.7217 23.65C36.6185 23.6384 36.525 23.7146 36.5134 23.8179L36.4942 24.0052C36.4826 24.1084 36.5589 24.2019 36.6621 24.2135C36.7654 24.2252 36.8589 24.1489 36.8705 24.0456L36.8896 23.8583C36.9013 23.7551 36.825 23.6616 36.7217 23.65Z" fill="#050505"/>
<path d="M36.1099 23.6541C36.0086 23.6427 35.9154 23.717 35.9057 23.8205L35.8868 24.0058C35.8754 24.1071 35.9497 24.2003 36.0532 24.21C36.1545 24.2214 36.2477 24.1471 36.2574 24.0436L36.2763 23.8583C36.2878 23.757 36.2132 23.6657 36.1099 23.6541Z" fill="#050505"/>
<path d="M35.4996 23.6581C35.3983 23.6467 35.307 23.7213 35.2977 23.8208L35.279 24.0042C35.2676 24.1055 35.3422 24.1968 35.4418 24.2061C35.5431 24.2175 35.6343 24.1429 35.6436 24.0433L35.6623 23.86C35.6735 23.7606 35.5989 23.6693 35.4996 23.6581Z" fill="#050505"/>
<path d="M34.8873 23.6622C34.7879 23.651 34.6988 23.7238 34.6876 23.8232L34.6691 24.0046C34.6579 24.104 34.7307 24.1931 34.8301 24.2043C34.9295 24.2155 35.0186 24.1426 35.0298 24.0433L35.0482 23.8619C35.0595 23.7625 34.9866 23.6734 34.8873 23.6622Z" fill="#050505"/>
<path d="M34.2755 23.6661C34.178 23.6552 34.0889 23.728 34.0779 23.8254L34.0599 24.0029C34.0489 24.1003 34.1217 24.1895 34.2192 24.2004C34.3166 24.2114 34.4057 24.1386 34.4167 24.0412L34.4347 23.8637C34.444 23.7641 34.3731 23.6752 34.2755 23.6661Z" fill="#050505"/>
<path d="M33.6631 23.6702C33.5657 23.6592 33.4788 23.7303 33.4678 23.8277L33.45 24.0033C33.439 24.1007 33.5101 24.1877 33.6075 24.1986C33.7049 24.2096 33.7919 24.1385 33.8029 24.0411L33.8207 23.8655C33.8297 23.7679 33.7588 23.679 33.6631 23.6702Z" fill="#050505"/>
<path d="M33.0514 23.6723C32.9559 23.6615 32.869 23.7326 32.8602 23.8283L32.8426 24.0019C32.8318 24.0974 32.9029 24.1844 32.9966 24.193C33.0921 24.2037 33.179 24.1326 33.1879 24.0369L33.2055 23.8633C33.216 23.7698 33.1469 23.6831 33.0514 23.6723Z" fill="#050505"/>
<path d="M32.439 23.6763C32.3455 23.6658 32.2607 23.7352 32.2502 23.8287L32.2328 24.0004C32.2223 24.0939 32.2917 24.1787 32.3852 24.1892C32.4787 24.1997 32.5635 24.1304 32.574 24.0369L32.5914 23.8652C32.6019 23.7717 32.5326 23.6869 32.439 23.6763Z" fill="#050505"/>
<path d="M31.8272 23.6803C31.7337 23.6697 31.6511 23.7374 31.6406 23.8309L31.6234 24.0006C31.6129 24.0941 31.6805 24.1767 31.774 24.1873C31.8675 24.1978 31.9504 24.1282 31.9607 24.0367L31.9776 23.8689C31.9882 23.7754 31.9208 23.6908 31.8272 23.6803Z" fill="#050505"/>
<path d="M31.2149 23.6842C31.1234 23.6739 31.0408 23.7415 31.0304 23.8331L31.0137 23.9989C31.0034 24.0905 31.071 24.1731 31.1626 24.1834C31.2542 24.1938 31.3368 24.1261 31.3471 24.0345L31.3638 23.8687C31.3742 23.7771 31.3065 23.6945 31.2149 23.6842Z" fill="#050505"/>
<path d="M30.6027 23.6883C30.513 23.6782 30.4307 23.7439 30.4223 23.8357L30.4038 23.9993C30.3937 24.089 30.4594 24.1713 30.5512 24.1797C30.6408 24.1898 30.7232 24.1241 30.7316 24.0323L30.7481 23.8684C30.7602 23.779 30.6942 23.6986 30.6027 23.6883Z" fill="#050505"/>
<path d="M29.9923 23.6924C29.9027 23.6823 29.8223 23.7482 29.8143 23.8361L29.798 23.998C29.7879 24.0876 29.8538 24.1681 29.9417 24.176C30.0314 24.1861 30.1118 24.1202 30.1197 24.0323L30.138 23.8706C30.1459 23.7827 30.0802 23.7003 29.9923 23.6924Z" fill="#050505"/>
<path d="M29.3805 23.6965C29.2928 23.6867 29.2145 23.7508 29.2046 23.8385L29.1886 23.9985C29.1787 24.0862 29.2429 24.1645 29.3306 24.1743C29.4182 24.1842 29.4965 24.12 29.5064 24.0324L29.5244 23.8726C29.5304 23.7845 29.4684 23.7045 29.3805 23.6965Z" fill="#050505"/>
<path d="M28.7682 23.7005C28.6825 23.6908 28.6042 23.755 28.5945 23.8407L28.5769 23.9966C28.5673 24.0823 28.6315 24.1606 28.7172 24.1703C28.8029 24.1799 28.8812 24.1157 28.8908 24.03L28.9084 23.8741C28.9164 23.7862 28.8541 23.7082 28.7682 23.7005Z" fill="#050505"/>
<path d="M28.1564 23.7025C28.0726 23.6931 27.9945 23.7553 27.9849 23.8411L27.9695 23.9952C27.9598 24.0809 28.0222 24.157 28.108 24.1667C28.1937 24.1764 28.2698 24.1139 28.2795 24.0282L28.2968 23.8742C28.3026 23.7881 28.2402 23.712 28.1564 23.7025Z" fill="#050505"/>
<path d="M27.5441 23.7065C27.4603 23.697 27.3842 23.7595 27.377 23.8416L27.3598 23.9935C27.3504 24.0773 27.4128 24.1534 27.4949 24.1607C27.5786 24.1701 27.6547 24.1077 27.662 24.0256L27.6792 23.8736C27.6884 23.7918 27.6279 23.7159 27.5441 23.7065Z" fill="#050505"/>
<path d="M26.9323 23.7105C26.8504 23.7013 26.7765 23.762 26.7673 23.8439L26.7523 23.9941C26.7431 24.076 26.8038 24.1499 26.8856 24.1591C26.9675 24.1683 27.0414 24.1076 27.0506 24.0258L27.0675 23.8758C27.0748 23.7937 27.0141 23.7198 26.9323 23.7105Z" fill="#050505"/>
<path d="M26.32 23.7145C26.2381 23.7052 26.1664 23.7642 26.1571 23.8461L26.1407 23.9922C26.1314 24.074 26.1904 24.1458 26.2723 24.155C26.3541 24.1643 26.4259 24.1053 26.4351 24.0234L26.4516 23.8773C26.4608 23.7955 26.4018 23.7237 26.32 23.7145Z" fill="#050505"/>
<path d="M25.7077 23.7185C25.6278 23.7095 25.556 23.7685 25.547 23.8484L25.5307 23.9926C25.5217 24.0725 25.5807 24.1442 25.6606 24.1532C25.7405 24.1622 25.8123 24.1032 25.8213 24.0234L25.8375 23.8792C25.8465 23.7993 25.7875 23.7275 25.7077 23.7185Z" fill="#050505"/>
<path d="M25.0959 23.7225C25.018 23.7137 24.9464 23.7708 24.9396 23.8489L24.9235 23.9912C24.9147 24.0691 24.9718 24.1407 25.05 24.1475C25.1279 24.1563 25.1994 24.0992 25.2063 24.0211L25.2223 23.8788C25.2331 23.8011 25.176 23.7296 25.0959 23.7225Z" fill="#050505"/>
<path d="M24.4855 23.7268C24.4095 23.7183 24.3399 23.7755 24.3313 23.8515L24.3155 23.9918C24.307 24.0678 24.3642 24.1374 24.4402 24.1459C24.5162 24.1545 24.5858 24.0972 24.5944 24.0213L24.6102 23.881C24.619 23.803 24.5617 23.7334 24.4855 23.7268Z" fill="#050505"/>
<path d="M23.8737 23.7306C23.7977 23.7221 23.7303 23.7776 23.7217 23.8536L23.7061 23.9919C23.6975 24.0679 23.7531 24.1353 23.8291 24.1439C23.905 24.1525 23.9725 24.0969 23.981 24.0209L23.9966 23.8826C24.0032 23.8064 23.9499 23.7372 23.8737 23.7306Z" fill="#050505"/>
<path d="M23.2614 23.7328C23.1874 23.7245 23.1199 23.78 23.1116 23.854L23.0964 23.9885C23.0881 24.0625 23.1436 24.13 23.2177 24.1383C23.2917 24.1466 23.3591 24.0911 23.3675 24.0171L23.3826 23.8826C23.389 23.8084 23.3354 23.7412 23.2614 23.7328Z" fill="#050505"/>
<path d="M22.6496 23.7367C22.5756 23.7284 22.5103 23.7822 22.5022 23.8543L22.4872 23.9868C22.4791 24.0589 22.5327 24.1261 22.6048 24.1342C22.6769 24.1423 22.7441 24.0887 22.7524 24.0147L22.7674 23.8822C22.7755 23.8101 22.7217 23.7449 22.6496 23.7367Z" fill="#050505"/>
<path d="M22.0378 23.7408C21.9657 23.7327 21.9007 23.7846 21.8945 23.8569L21.8798 23.9874C21.8717 24.0595 21.9255 24.1248 21.9958 24.1307C22.0679 24.1388 22.1332 24.085 22.1391 24.0147L22.1539 23.8841C22.1618 23.814 22.1099 23.7489 22.0378 23.7408Z" fill="#050505"/>
<path d="M21.425 23.7447C21.3548 23.7368 21.2918 23.7889 21.2838 23.8591L21.2693 23.9877C21.2614 24.0578 21.3135 24.1209 21.3837 24.1288C21.4538 24.1367 21.5169 24.0846 21.5248 24.0145L21.5374 23.8857C21.5472 23.8157 21.4951 23.7527 21.425 23.7447Z" fill="#050505"/>
<path d="M20.8132 23.7487C20.745 23.741 20.6821 23.7911 20.6742 23.8613L20.6601 23.986C20.6525 24.0542 20.7026 24.117 20.7727 24.1249C20.8409 24.1326 20.9038 24.0825 20.9117 24.0123L20.9258 23.8877C20.9337 23.8175 20.8833 23.7566 20.8132 23.7487Z" fill="#050505"/>
<path d="M20.2009 23.7528C20.1327 23.7451 20.0717 23.7954 20.0641 23.8636L20.0502 23.9864C20.0425 24.0546 20.0929 24.1155 20.1611 24.1232C20.2293 24.1309 20.2902 24.0805 20.2979 24.0123L20.3117 23.8896C20.3194 23.8214 20.2693 23.7585 20.2009 23.7528Z" fill="#050505"/>
<path d="M19.5905 23.757C19.5243 23.7495 19.4636 23.7979 19.4561 23.8641L19.4425 23.9849C19.435 24.0512 19.4834 24.1119 19.5497 24.1194C19.6159 24.1268 19.6766 24.0784 19.6841 24.0122L19.6977 23.8914C19.7054 23.8232 19.657 23.7625 19.5905 23.757Z" fill="#050505"/>
<path d="M18.9792 23.759C18.9149 23.7518 18.8562 23.8004 18.8489 23.8647L18.8355 23.9836C18.8283 24.0479 18.8767 24.1086 18.9412 24.1139C19.0055 24.1211 19.0642 24.0725 19.0715 24.0082L19.0849 23.8893C19.0921 23.825 19.0435 23.7663 18.9792 23.759Z" fill="#050505"/>
<path d="M18.3669 23.7631C18.3026 23.7558 18.246 23.8027 18.2388 23.867L18.2258 23.982C18.2186 24.0463 18.2655 24.1029 18.3298 24.1101C18.3941 24.1174 18.4506 24.0705 18.4579 24.0062L18.4709 23.8912C18.4759 23.8286 18.4293 23.7701 18.3669 23.7631Z" fill="#050505"/>
<path d="M17.7546 23.767C17.6923 23.76 17.6357 23.8069 17.6286 23.8692L17.6159 23.9822C17.6089 24.0446 17.6558 24.1012 17.7181 24.1082C17.7805 24.1152 17.8371 24.0683 17.8441 24.006L17.8568 23.893C17.8619 23.8304 17.817 23.774 17.7546 23.767Z" fill="#050505"/>
<path d="M17.1423 23.7709C17.0819 23.7641 17.0255 23.8091 17.0187 23.8695L17.0062 23.9805C16.9994 24.0409 17.0443 24.0973 17.1047 24.1041C17.1651 24.1109 17.2215 24.066 17.2283 24.0056L17.2408 23.8945C17.2479 23.8322 17.2027 23.7778 17.1423 23.7709Z" fill="#050505"/>
<path d="M16.5301 23.7751C16.4697 23.7683 16.4155 23.8116 16.4106 23.8722L16.3983 23.9813C16.3915 24.0417 16.4347 24.0959 16.4953 24.1007C16.5557 24.1076 16.6099 24.0643 16.6148 24.0037L16.6271 23.8946C16.6337 23.8362 16.5905 23.782 16.5301 23.7751Z" fill="#050505"/>
<path d="M15.9182 23.7791C15.8597 23.7725 15.8075 23.8159 15.8009 23.8744L15.789 23.9796C15.7825 24.038 15.8259 24.0903 15.8843 24.0969C15.9428 24.1035 15.995 24.06 16.0016 24.0016L16.0135 23.8964C16.0201 23.8379 15.9766 23.7857 15.9182 23.7791Z" fill="#050505"/>
<path d="M15.3059 23.7831C15.2494 23.7767 15.1974 23.8182 15.1908 23.8766L15.1791 23.9799C15.1728 24.0364 15.2142 24.0884 15.2727 24.095C15.3292 24.1014 15.3812 24.0599 15.3878 24.0015L15.3995 23.8982C15.4061 23.8397 15.3646 23.7877 15.3059 23.7831Z" fill="#050505"/>
<path d="M14.696 23.7853C14.6395 23.779 14.5895 23.8207 14.5833 23.8752L14.5719 23.9766C14.5655 24.0331 14.6072 24.0831 14.6618 24.0893C14.7183 24.0957 14.7684 24.054 14.7745 23.9994L14.7859 23.8981C14.7923 23.8416 14.7506 23.7915 14.696 23.7853Z" fill="#050505"/>
<path d="M14.0843 23.7894C14.0297 23.7833 13.9799 23.823 13.9757 23.8778L13.9645 23.9772C13.9583 24.0317 13.9981 24.0816 14.0528 24.0858C14.1074 24.092 14.1573 24.0522 14.1615 23.9974L14.1727 23.8981C14.1786 23.8454 14.1389 23.7956 14.0843 23.7894Z" fill="#050505"/>
<path d="M13.4715 23.7932C13.4189 23.7873 13.369 23.8271 13.3651 23.8799L13.3541 23.9773C13.3481 24.0299 13.3879 24.0798 13.4407 24.0838C13.4933 24.0897 13.5413 24.0497 13.5472 23.9971L13.5582 23.8997C13.5621 23.8469 13.5241 23.7992 13.4715 23.7932Z" fill="#050505"/>
<path d="M12.8601 23.7973C12.8075 23.7914 12.7618 23.8296 12.7558 23.8822L12.7453 23.9757C12.7394 24.0283 12.7776 24.0741 12.8302 24.08C12.8828 24.086 12.9286 24.0477 12.9345 23.9951L12.9451 23.9016C12.949 23.8487 12.9108 23.803 12.8601 23.7973Z" fill="#050505"/>
<path d="M12.2478 23.8013C12.1972 23.7956 12.1516 23.8319 12.1459 23.8826L12.1356 23.9742C12.1299 24.0248 12.1681 24.0706 12.2188 24.0763C12.2695 24.082 12.3152 24.0437 12.3207 23.995L12.331 23.9035C12.3348 23.8526 12.2985 23.807 12.2478 23.8013Z" fill="#050505"/>
<path d="M11.6355 23.8054C11.5868 23.7999 11.5413 23.8362 11.5358 23.8849L11.5257 23.9745C11.5202 24.0233 11.5565 24.0688 11.6052 24.0743C11.6539 24.0798 11.6995 24.0435 11.705 23.9948L11.7151 23.9051C11.7208 23.8545 11.6842 23.8109 11.6355 23.8054Z" fill="#050505"/>
<path d="M11.0233 23.8093C10.9746 23.8038 10.9312 23.8384 10.9277 23.8873L10.9178 23.975C10.9123 24.0237 10.9469 24.0671 10.9958 24.0706C11.0445 24.0761 11.0879 24.0415 11.0914 23.9926L11.1013 23.9049C11.1068 23.8562 11.0722 23.8128 11.0233 23.8093Z" fill="#050505"/>
<path d="M10.4114 23.8114C10.3647 23.8062 10.3232 23.841 10.318 23.8877L10.3085 23.9715C10.3033 24.0183 10.3381 24.0597 10.3848 24.065C10.4316 24.0702 10.473 24.0354 10.4783 23.9887L10.4877 23.9049C10.4928 23.8601 10.4582 23.8167 10.4114 23.8114Z" fill="#050505"/>
<path d="M9.79961 23.8154C9.7548 23.8103 9.7136 23.8432 9.70855 23.888L9.69932 23.9698C9.69427 24.0146 9.72713 24.0558 9.77389 24.0611C9.8187 24.0662 9.85989 24.0333 9.86516 23.9865L9.87439 23.9047C9.87922 23.8618 9.84638 23.8207 9.79961 23.8154Z" fill="#050505"/>
<path d="M9.18925 23.8196C9.14444 23.8145 9.1052 23.8476 9.10037 23.8904L9.09136 23.9703C9.08631 24.0151 9.11937 24.0544 9.16224 24.0592C9.2051 24.064 9.2463 24.0312 9.25113 23.9883L9.26014 23.9084C9.26519 23.8636 9.23212 23.8244 9.18925 23.8196Z" fill="#050505"/>
<path d="M8.57696 23.8237C8.5341 23.8189 8.49507 23.85 8.49024 23.8929L8.48145 23.9708C8.47662 24.0137 8.50774 24.0527 8.55061 24.0575C8.59347 24.0624 8.63249 24.0313 8.63732 23.9884L8.64611 23.9104C8.65094 23.8676 8.61983 23.8286 8.57696 23.8237Z" fill="#050505"/>
<path d="M7.96515 23.8277C7.92424 23.8231 7.88716 23.8544 7.88255 23.8953L7.87398 23.9713C7.86937 24.0122 7.90071 24.0493 7.94162 24.0539C7.98254 24.0585 8.01962 24.0272 8.02423 23.9863L8.0328 23.9103C8.03546 23.8692 8.00607 23.8323 7.96515 23.8277Z" fill="#050505"/>
<path d="M7.35236 23.8316C7.31145 23.827 7.27654 23.8566 7.27193 23.8975L7.2638 23.9696C7.25919 24.0105 7.2888 24.0454 7.32971 24.0501C7.37063 24.0547 7.40554 24.0251 7.41015 23.9841L7.41828 23.912C7.42094 23.8709 7.39133 23.836 7.35236 23.8316Z" fill="#050505"/>
<path d="M6.74056 23.8355C6.70159 23.8312 6.66668 23.8608 6.6625 23.8978L6.6546 23.9679C6.6502 24.0069 6.67787 24.0416 6.71684 24.046C6.75581 24.0504 6.79049 24.0227 6.79489 23.9837L6.80279 23.9136C6.80719 23.8746 6.77953 23.8399 6.74056 23.8355Z" fill="#050505"/>
<path d="M6.12873 23.8396C6.09171 23.8354 6.05702 23.863 6.05285 23.9001L6.04516 23.9683C6.04099 24.0053 6.06864 24.04 6.10566 24.0441C6.14268 24.0483 6.17738 24.0207 6.18155 23.9836L6.18924 23.9154C6.19363 23.8765 6.16597 23.8418 6.12873 23.8396Z" fill="#050505"/>
<path d="M37.6735 22.3326C37.6815 22.2269 37.6031 22.1352 37.4996 22.1255C37.3939 22.1176 37.3022 22.196 37.2925 22.2995L37.277 22.4891C37.2691 22.5948 37.3475 22.6865 37.451 22.6962C37.5567 22.7042 37.6484 22.6257 37.6581 22.5222L37.6735 22.3326Z" fill="#050505"/>
<path d="M37.0579 22.3482C37.0656 22.2445 36.9891 22.153 36.8854 22.1452C36.7817 22.1375 36.6902 22.214 36.6825 22.3177L36.6672 22.5054C36.6595 22.6091 36.736 22.7006 36.8397 22.7083C36.9434 22.7161 37.0349 22.6396 37.0427 22.5359L37.0579 22.3482Z" fill="#050505"/>
<path d="M36.4424 22.3655C36.4499 22.2638 36.3734 22.1723 36.2717 22.1648C36.1699 22.1572 36.0784 22.2337 36.0709 22.3355L36.0559 22.5213C36.0483 22.623 36.1248 22.7145 36.2266 22.722C36.3283 22.7296 36.4199 22.6531 36.4274 22.5513L36.4424 22.3655Z" fill="#050505"/>
<path d="M35.8273 22.3811C35.8348 22.2794 35.7598 22.192 35.6583 22.1825C35.5565 22.175 35.4692 22.25 35.4597 22.3515L35.4449 22.5353C35.4373 22.6371 35.5124 22.7245 35.6139 22.7339C35.7156 22.7414 35.805 22.6667 35.8125 22.5649L35.8273 22.3811Z" fill="#050505"/>
<path d="M35.2118 22.3965C35.2191 22.2967 35.1441 22.2093 35.0465 22.2002C34.9467 22.1929 34.8593 22.2679 34.8503 22.3656L34.8357 22.5474C34.8284 22.6472 34.9014 22.7344 35.001 22.7436C35.1008 22.751 35.188 22.6779 35.1972 22.5783L35.2118 22.3965Z" fill="#050505"/>
<path d="M34.5958 22.412C34.6029 22.3142 34.5299 22.227 34.4322 22.218C34.3346 22.2089 34.2472 22.2839 34.2382 22.3816L34.224 22.5595C34.215 22.6572 34.29 22.7445 34.3876 22.7536C34.4855 22.7607 34.5726 22.6876 34.5817 22.59L34.5958 22.412Z" fill="#050505"/>
<path d="M33.9787 22.4272C33.9877 22.3296 33.9145 22.2444 33.8166 22.2373C33.7188 22.2302 33.6338 22.3015 33.6267 22.3994L33.6128 22.5754C33.6037 22.673 33.677 22.7582 33.7748 22.7653C33.8727 22.7724 33.9577 22.7011 33.9648 22.6032L33.9787 22.4272Z" fill="#050505"/>
<path d="M33.3637 22.4427C33.3706 22.3467 33.2993 22.2618 33.2034 22.2549C33.1077 22.2461 33.0224 22.3193 33.0156 22.4152L33.0019 22.5893C32.9931 22.685 33.0663 22.7702 33.1622 22.7771C33.2579 22.7859 33.3431 22.7126 33.35 22.6167L33.3637 22.4427Z" fill="#050505"/>
<path d="M32.7481 22.4601C32.7567 22.3663 32.6854 22.2813 32.5914 22.2747C32.4977 22.2661 32.4146 22.3376 32.406 22.4314L32.3926 22.6035C32.384 22.6972 32.4555 22.7803 32.5492 22.7889C32.643 22.7975 32.726 22.7259 32.7346 22.6322L32.7481 22.4601Z" fill="#050505"/>
<path d="M32.1326 22.4755C32.1412 22.3818 32.0695 22.3007 31.9777 22.2923C31.8839 22.2837 31.8028 22.3555 31.7944 22.4473L31.7814 22.6155C31.7728 22.7092 31.8446 22.7903 31.9363 22.7987C32.0301 22.8073 32.1112 22.7355 32.1196 22.6437L32.1326 22.4755Z" fill="#050505"/>
<path d="M31.5171 22.4911C31.5255 22.3993 31.4557 22.3184 31.3639 22.31C31.2721 22.3016 31.1912 22.3715 31.1829 22.4633L31.17 22.6295C31.1616 22.7213 31.2314 22.8022 31.3232 22.8106C31.415 22.8189 31.4959 22.7491 31.5043 22.6573L31.5171 22.4911Z" fill="#050505"/>
<path d="M30.902 22.5065C30.9101 22.4167 30.8423 22.336 30.7503 22.3296C30.6604 22.3215 30.5797 22.3893 30.5733 22.4813L30.5607 22.6456C30.5526 22.7355 30.6204 22.8161 30.7124 22.8226C30.8023 22.8307 30.8829 22.7629 30.8894 22.6709L30.902 22.5065Z" fill="#050505"/>
<path d="M30.2865 22.522C30.2946 22.4322 30.2265 22.3534 30.1384 22.3475C30.0486 22.3393 29.9699 22.4074 29.9639 22.4955L29.9515 22.6579C29.9434 22.7477 30.0114 22.8264 30.0995 22.8324C30.1894 22.8406 30.2681 22.7725 30.2741 22.6844L30.2865 22.522Z" fill="#050505"/>
<path d="M29.6704 22.5394C29.6783 22.4515 29.612 22.3749 29.5241 22.367C29.4362 22.3591 29.3596 22.4254 29.3517 22.5133L29.3376 22.6735C29.3296 22.7614 29.396 22.838 29.4839 22.8459C29.5718 22.8538 29.6483 22.7875 29.6563 22.6996L29.6704 22.5394Z" fill="#050505"/>
<path d="M29.0554 22.5549C29.0631 22.469 28.9968 22.3924 28.9108 22.3847C28.8249 22.377 28.7485 22.4414 28.7406 22.5293L28.7269 22.6856C28.7192 22.7716 28.7855 22.8481 28.8715 22.8558C28.9574 22.8635 29.034 22.7972 29.0417 22.7113L29.0554 22.5549Z" fill="#050505"/>
<path d="M28.4399 22.5704C28.4474 22.4864 28.383 22.4101 28.299 22.4026C28.213 22.3949 28.1387 22.4595 28.1312 22.5435L28.1177 22.6979C28.1102 22.7819 28.1746 22.8582 28.2606 22.8659C28.3446 22.8734 28.4209 22.809 28.4284 22.725L28.4399 22.5704Z" fill="#050505"/>
<path d="M27.8226 22.5855C27.8301 22.5015 27.7675 22.4273 27.6833 22.4218C27.5993 22.4143 27.5251 22.4769 27.5176 22.5609L27.5044 22.7134C27.4969 22.7974 27.5595 22.8715 27.6438 22.8771C27.7278 22.8846 27.8019 22.8219 27.8075 22.7377L27.8226 22.5855Z" fill="#050505"/>
<path d="M27.2073 22.6011C27.2146 22.519 27.1519 22.4449 27.0696 22.4395C26.9876 22.4323 26.9134 22.4949 26.9081 22.5772L26.8951 22.7277C26.8878 22.8097 26.9505 22.8839 27.0328 22.8892C27.1148 22.8965 27.187 22.8336 27.1943 22.7515L27.2073 22.6011Z" fill="#050505"/>
<path d="M26.5917 22.6183C26.599 22.5363 26.5378 22.4662 26.4557 22.459C26.3756 22.4519 26.3037 22.5128 26.2964 22.5949L26.2838 22.7415C26.2768 22.8216 26.3377 22.8936 26.4198 22.9008C26.4999 22.9079 26.5718 22.8469 26.5791 22.7649L26.5917 22.6183Z" fill="#050505"/>
<path d="M25.9757 22.6339C25.9828 22.5538 25.9216 22.4838 25.8434 22.4769C25.7633 22.4699 25.6933 22.531 25.6865 22.6092L25.6741 22.7538C25.6671 22.8339 25.7282 22.9039 25.8064 22.9108C25.8865 22.9178 25.9565 22.8567 25.9634 22.7785L25.9757 22.6339Z" fill="#050505"/>
<path d="M25.3607 22.6493C25.3676 22.5712 25.3083 22.5014 25.2302 22.4945C25.152 22.4877 25.0822 22.5469 25.0754 22.6251L25.0632 22.7677C25.0564 22.8459 25.1156 22.9157 25.1938 22.9225C25.2719 22.9294 25.3418 22.8702 25.3486 22.792L25.3607 22.6493Z" fill="#050505"/>
<path d="M24.7452 22.6649C24.7518 22.5887 24.6946 22.5191 24.6164 22.5123C24.5402 22.5056 24.4706 22.5629 24.4638 22.6411L24.4519 22.7818C24.4452 22.858 24.5025 22.9276 24.5807 22.9344C24.6569 22.941 24.7264 22.8838 24.7333 22.8056L24.7452 22.6649Z" fill="#050505"/>
<path d="M24.1306 22.6804C24.1372 22.6042 24.0795 22.5385 24.0033 22.5318C23.927 22.5252 23.8594 22.5827 23.8547 22.6591L23.843 22.7979C23.8364 22.8741 23.8939 22.9418 23.9703 22.9464C24.0465 22.9531 24.1142 22.8956 24.1189 22.8191L24.1306 22.6804Z" fill="#050505"/>
<path d="M23.5145 22.6977C23.5209 22.6234 23.4651 22.5579 23.3908 22.5515C23.3166 22.5451 23.2511 22.6009 23.2447 22.6751L23.2334 22.81C23.227 22.8843 23.2828 22.9498 23.3571 22.9562C23.4313 22.9626 23.4968 22.9068 23.5032 22.8325L23.5145 22.6977Z" fill="#050505"/>
<path d="M22.899 22.7132C22.9051 22.6409 22.8494 22.5754 22.7771 22.5692C22.7048 22.5631 22.6393 22.6188 22.6331 22.6911L22.6221 22.8241C22.6159 22.8964 22.6716 22.9619 22.7439 22.968C22.8163 22.9742 22.8817 22.9184 22.8879 22.8461L22.899 22.7132Z" fill="#050505"/>
<path d="M22.284 22.7288C22.2901 22.6565 22.2361 22.5931 22.1638 22.587C22.0915 22.5808 22.0282 22.6348 22.022 22.7071L22.0112 22.8381C22.005 22.9104 22.059 22.9737 22.1313 22.9799C22.2036 22.9861 22.267 22.9321 22.2731 22.8597L22.284 22.7288Z" fill="#050505"/>
<path d="M21.6665 22.744C21.6725 22.6736 21.6184 22.6103 21.5481 22.6043C21.4777 22.5984 21.4146 22.6504 21.4087 22.7208L21.3981 22.8498C21.3921 22.9202 21.4442 22.9833 21.5165 22.9895C21.5869 22.9954 21.6502 22.9414 21.6542 22.8708L21.6665 22.744Z" fill="#050505"/>
<path d="M21.0508 22.7594C21.0565 22.691 21.0042 22.6299 20.9358 22.6241C20.8674 22.6184 20.8062 22.6707 20.8005 22.7391L20.7903 22.8643C20.7846 22.9327 20.8369 22.9938 20.9053 22.9996C20.9737 23.0053 21.0349 22.953 21.0406 22.8846L21.0508 22.7594Z" fill="#050505"/>
<path d="M20.4353 22.7768C20.441 22.7084 20.3904 22.6494 20.322 22.6437C20.2536 22.638 20.1946 22.6885 20.1889 22.757L20.179 22.8801C20.1732 22.9486 20.2238 23.0075 20.2922 23.0133C20.3606 23.019 20.4196 22.9684 20.4253 22.9L20.4353 22.7768Z" fill="#050505"/>
<path d="M19.8198 22.7923C19.8253 22.7258 19.7747 22.6668 19.7083 22.6613C19.6418 22.6558 19.5828 22.7064 19.5773 22.7728L19.5676 22.8941C19.5621 22.9605 19.6126 23.0195 19.6791 23.025C19.7456 23.0306 19.8045 22.98 19.8101 22.9135L19.8198 22.7923Z" fill="#050505"/>
<path d="M19.2043 22.8077C19.2096 22.7432 19.161 22.6845 19.0964 22.6792C19.0319 22.6739 18.9732 22.7225 18.9679 22.787L18.9584 22.9063C18.9531 22.9708 19.0017 23.0296 19.0662 23.0349C19.1307 23.0402 19.1895 22.9915 19.1948 22.927L19.2043 22.8077Z" fill="#050505"/>
<path d="M18.5888 22.8233C18.5941 22.7588 18.5453 22.702 18.4827 22.6969C18.4182 22.6916 18.3614 22.7404 18.3563 22.803L18.3472 22.9184C18.3419 22.9829 18.3908 23.0397 18.4533 23.0448C18.5178 23.0501 18.5747 23.0013 18.5797 22.9387L18.5888 22.8233Z" fill="#050505"/>
<path d="M17.974 22.8388C17.9791 22.7762 17.932 22.7215 17.8694 22.7165C17.8068 22.7114 17.7522 22.7585 17.7471 22.8211L17.7383 22.9345C17.7332 22.9971 17.7803 23.0517 17.8429 23.0568C17.9055 23.0619 17.9601 23.0148 17.9652 22.9522L17.974 22.8388Z" fill="#050505"/>
<path d="M17.358 22.8561C17.3629 22.7955 17.3177 22.7411 17.2552 22.736C17.1945 22.7312 17.1401 22.7763 17.135 22.8389L17.1264 22.9504C17.1215 23.011 17.1667 23.0654 17.2293 23.0705C17.2899 23.0754 17.3443 23.0302 17.3494 22.9676L17.358 22.8561Z" fill="#050505"/>
<path d="M16.7425 22.8716C16.7474 22.811 16.702 22.7585 16.6433 22.7539C16.5827 22.749 16.5303 22.7944 16.5256 22.8531L16.5172 22.9626C16.5124 23.0232 16.5577 23.0757 16.6164 23.0804C16.677 23.0852 16.7295 23.0398 16.7341 22.9812L16.7425 22.8716Z" fill="#050505"/>
<path d="M16.1275 22.887C16.1322 22.8284 16.0887 22.7761 16.0301 22.7715C15.9714 22.7668 15.9192 22.8103 15.9145 22.8689L15.9065 22.9746C15.9019 23.0333 15.9453 23.0855 16.004 23.0902C16.0627 23.0948 16.1149 23.0514 16.1196 22.9927L16.1275 22.887Z" fill="#050505"/>
<path d="M15.5101 22.9023C15.5145 22.8456 15.4711 22.7934 15.4144 22.789C15.3576 22.7845 15.3054 22.828 15.301 22.8847L15.2932 22.9884C15.2888 23.0451 15.3322 23.0974 15.389 23.1018C15.4457 23.1062 15.4979 23.0628 15.5024 23.0061L15.5101 22.9023Z" fill="#050505"/>
<path d="M14.8948 22.9178C14.8993 22.8611 14.8573 22.813 14.8006 22.8085C14.7439 22.8041 14.6957 22.846 14.6913 22.9028L14.6838 23.0045C14.6794 23.0612 14.7213 23.1094 14.778 23.1138C14.8347 23.1182 14.8829 23.0763 14.8873 23.0196L14.8948 22.9178Z" fill="#050505"/>
<path d="M14.2789 22.9351C14.2831 22.8803 14.2431 22.8324 14.1883 22.8282C14.1335 22.824 14.0856 22.864 14.0814 22.9188L14.0722 23.0184C14.068 23.0731 14.1099 23.1213 14.1627 23.1253C14.2175 23.1295 14.2654 23.0895 14.2696 23.0347L14.2789 22.9351Z" fill="#050505"/>
<path d="M13.6638 22.9507C13.6678 22.8978 13.6278 22.8499 13.575 22.8459C13.5222 22.842 13.4743 22.8819 13.4703 22.9348L13.4613 23.0324C13.4573 23.0852 13.4973 23.1332 13.5501 23.1371C13.6029 23.1411 13.6508 23.1011 13.6548 23.0483L13.6638 22.9507Z" fill="#050505"/>
<path d="M13.0479 22.966C13.0518 22.9132 13.0136 22.8674 12.9608 22.8634C12.9079 22.8594 12.8622 22.8977 12.8582 22.9505L12.8516 23.0445C12.8476 23.0973 12.8858 23.1431 12.9387 23.147C12.9915 23.151 13.0372 23.1128 13.0412 23.0599L13.0479 22.966Z" fill="#050505"/>
<path d="M12.4328 22.9817C12.4366 22.9308 12.3983 22.885 12.3474 22.8813C12.2966 22.8775 12.2528 22.916 12.247 22.9666L12.2387 23.0584C12.2349 23.1093 12.2734 23.1531 12.324 23.1588C12.3749 23.1626 12.4187 23.1241 12.4244 23.0734L12.4328 22.9817Z" fill="#050505"/>
<path d="M11.8173 22.997C11.8209 22.9481 11.7843 22.9045 11.7356 22.899C11.6867 22.8955 11.6431 22.932 11.6376 22.9807L11.6295 23.0706C11.6259 23.1195 11.6625 23.1631 11.7114 23.1666C11.7603 23.1702 11.8039 23.1337 11.8094 23.0849L11.8173 22.997Z" fill="#050505"/>
<path d="M11.2016 23.0145C11.2052 22.9656 11.1704 22.9242 11.1214 22.9207C11.0725 22.9171 11.0311 22.9519 11.0276 23.0008L11.0196 23.0887C11.0161 23.1377 11.0509 23.1791 11.0998 23.1826C11.1487 23.1862 11.1901 23.1514 11.1937 23.1024L11.2016 23.0145Z" fill="#050505"/>
<path d="M10.5861 23.03C10.5895 22.983 10.5547 22.9416 10.5077 22.9383C10.4607 22.9349 10.4193 22.9697 10.416 23.0167L10.4085 23.1007C10.4051 23.1477 10.4399 23.1891 10.4869 23.1924C10.5339 23.1958 10.5753 23.161 10.5786 23.114L10.5861 23.03Z" fill="#050505"/>
<path d="M9.96918 23.0452C9.97229 23.0002 9.93944 22.959 9.89441 22.9559C9.84938 22.9528 9.80818 22.9856 9.80507 23.0306L9.7978 23.1127C9.79469 23.1577 9.82754 23.1989 9.87257 23.202C9.9176 23.2051 9.9588 23.1723 9.96213 23.1253L9.96918 23.0452Z" fill="#050505"/>
<path d="M9.35362 23.0608C9.35672 23.0158 9.32343 22.9785 9.28057 22.9736C9.2377 22.9688 9.19824 23.0038 9.19341 23.0467L9.18636 23.1268C9.18325 23.1718 9.21653 23.2091 9.2594 23.2139C9.30443 23.217 9.34368 23.184 9.34657 23.1409L9.35362 23.0608Z" fill="#050505"/>
<path d="M8.73814 23.0761C8.74102 23.033 8.70968 22.9959 8.66681 22.9911C8.62373 22.9882 8.58665 23.0196 8.58181 23.0624L8.57498 23.1406C8.5721 23.1837 8.60344 23.2207 8.64652 23.2236C8.68961 23.2265 8.72669 23.1952 8.72957 23.1521L8.73814 23.0761Z" fill="#050505"/>
<path d="M8.12244 23.0936C8.1251 23.0525 8.09572 23.0156 8.05264 23.0127C8.00955 23.0099 7.97442 23.0414 7.97176 23.0825L7.96535 23.1568C7.96269 23.1979 7.99208 23.2348 8.03517 23.2377C8.0763 23.2403 8.11316 23.211 8.11604 23.1679L8.12244 23.0936Z" fill="#050505"/>
<path d="M7.50695 23.109C7.50962 23.0678 7.48001 23.0329 7.44082 23.0305C7.39969 23.0278 7.36478 23.0574 7.36234 23.0966L7.35616 23.1689C7.35371 23.2081 7.3831 23.245 7.42229 23.2474C7.46343 23.2501 7.49833 23.2205 7.50078 23.1813L7.50695 23.109Z" fill="#050505"/>
<path d="M6.89196 23.1245C6.8944 23.0853 6.86674 23.0506 6.82756 23.0482C6.78837 23.0457 6.75367 23.0734 6.75123 23.1126L6.74527 23.183C6.74283 23.2221 6.77048 23.2568 6.80967 23.2593C6.84886 23.2617 6.88356 23.2341 6.886 23.1949L6.89196 23.1245Z" fill="#050505"/>
<path d="M6.27687 23.14C6.2791 23.1027 6.25121 23.07 6.21419 23.0658C6.17695 23.0636 6.14422 23.0915 6.14004 23.1285L6.1343 23.1969C6.13208 23.2341 6.15996 23.2669 6.19698 23.2711C6.23422 23.2733 6.26695 23.2454 6.27112 23.2084L6.27687 23.14Z" fill="#050505"/>
<path d="M8.30602 21.727C8.28516 21.9121 8.37845 22.0647 8.52222 22.0671L9.25125 22.0763C9.46994 22.0793 9.68853 21.873 9.71708 21.6197C9.72543 21.5457 9.71515 21.4794 9.69402 21.4218C9.60609 21.5717 9.45241 21.6747 9.29867 21.6732L8.56964 21.664C8.48303 21.6622 8.41621 21.6073 8.38041 21.5223C8.34003 21.5829 8.31437 21.653 8.30602 21.727Z" fill="#050505"/>
<path d="M10.3366 21.3583C10.2954 21.4266 10.2647 21.506 10.2553 21.5898C10.2318 21.7983 10.3367 21.97 10.5002 21.9726L11.3219 21.9824C11.5683 21.9845 11.8153 21.7538 11.8476 21.4674C11.857 21.3836 11.8459 21.3074 11.8215 21.2435C11.7236 21.412 11.5487 21.5284 11.3753 21.5266L10.5536 21.5169C10.455 21.5157 10.3791 21.4538 10.3366 21.3583Z" fill="#050505"/>
<path d="M12.5094 21.1492C12.4633 21.225 12.4296 21.3139 12.4191 21.4074C12.393 21.6393 12.5113 21.8322 12.6908 21.8327L13.6069 21.8452C13.8808 21.8484 14.1545 21.5912 14.1905 21.2717C14.2011 21.1782 14.1888 21.0939 14.1615 21.0218C14.0514 21.2106 13.8593 21.3389 13.6642 21.3367L12.7481 21.3241C12.6394 21.3257 12.5547 21.255 12.5094 21.1492Z" fill="#050505"/>
<path d="M15.0944 20.9199C15.0434 21.0049 15.0067 21.1033 14.9952 21.2046C14.9665 21.4599 15.0965 21.6719 15.2955 21.6746L16.3042 21.6877C16.6076 21.6923 16.9079 21.4084 16.9477 21.0558C16.9593 20.9525 16.9461 20.8602 16.9154 20.7818C16.7954 20.9893 16.5821 21.131 16.3673 21.1285L15.3585 21.1154C15.2383 21.1137 15.1464 21.0362 15.0944 20.9199Z" fill="#050505"/>
<path d="M17.9618 20.6532C17.906 20.7456 17.8662 20.8536 17.8537 20.9646C17.8223 21.2433 17.9639 21.4743 18.1826 21.4772L19.2841 21.4909C19.6151 21.4947 19.9441 21.1845 19.9874 20.8007C20.0001 20.6877 19.9858 20.5874 19.9521 20.5007C19.8201 20.7266 19.5875 20.8819 19.353 20.8791L18.2516 20.8654C18.1175 20.8642 18.0166 20.7798 17.9618 20.6532Z" fill="#050505"/>
<path d="M21.0981 20.4146C21.0375 20.5144 20.9927 20.6317 20.9791 20.7525C20.9449 21.0564 21.0982 21.3065 21.3346 21.3095L22.5307 21.324C22.8893 21.3289 23.2469 20.9923 23.2937 20.5773C23.3073 20.4565 23.2921 20.3463 23.2554 20.2514C23.1132 20.4978 22.8596 20.6645 22.6054 20.6615L21.4093 20.647C21.2694 20.6451 21.1594 20.5538 21.0981 20.4146Z" fill="#050505"/>
<path d="M24.2437 20.1103C24.1784 20.2174 24.1305 20.3442 24.1158 20.4747C24.0789 20.8021 24.2439 21.0713 24.5001 21.0745L25.7886 21.0915C26.1749 21.0956 26.5609 20.7346 26.6114 20.2865C26.6261 20.1559 26.6098 20.0377 26.57 19.9365C26.4158 20.2013 26.1429 20.3816 25.8709 20.3786L24.5824 20.3616C24.427 20.3579 24.3078 20.2596 24.2437 20.1103Z" fill="#050505"/>
<path d="M27.519 19.8896C27.4489 20.004 27.398 20.1403 27.3822 20.2806C27.3426 20.6313 27.5193 20.9196 27.793 20.9248L29.1742 20.9424C29.588 20.9476 30.0008 20.5581 30.0549 20.0788C30.0707 19.9385 30.0536 19.8103 30.0105 19.7028C29.8463 19.9862 29.5539 20.1821 29.2605 20.1767L27.8793 20.1591C27.716 20.1545 27.588 20.0473 27.519 19.8896Z" fill="#050505"/>
<path d="M32.9763 20.7672C33.4195 20.7738 33.8591 20.3577 33.9169 19.8453C33.9338 19.6952 33.9156 19.559 33.8694 19.4433C33.6931 19.747 33.3816 19.9546 33.0686 19.9489L31.5927 19.9305C31.4173 19.9285 31.2802 19.8144 31.2067 19.6443C31.1316 19.768 31.0778 19.9119 31.0611 20.06C31.019 20.4341 31.209 20.7436 31.5007 20.7469L32.9763 20.7672Z" fill="#050505"/>
<path d="M70.1363 32.3261C69.1466 32.179 67.9436 31.998 66.5625 31.8048C65.873 31.7074 65.137 31.6027 64.3639 31.4938C63.5891 31.3828 62.7741 31.2791 61.9231 31.1615C61.0717 31.0477 60.1874 30.9283 59.2699 30.8051C59.0599 30.7775 58.8499 30.7499 58.636 30.7218L58.9112 30.7489L60.1137 29.5684L60.1293 29.5701L78.8463 19.2473L62.6571 15.6188L61.366 14.7846L61.3582 14.7837L60.2449 14.0702L60.2605 14.0719L58.9694 13.2377L58.944 13.2349L57.8307 12.5214L57.8638 12.5251L56.5727 11.6909L56.5318 11.6863L55.4185 10.9728L55.4672 10.9783L54.1761 10.1441L54.1176 10.1375L53.0043 9.424L53.0705 9.43147L51.7794 8.59728L51.7054 8.58894L50.5921 7.87543L50.6739 7.88465L49.3828 7.05047L49.2912 7.04015L48.1779 6.32663L48.2772 6.33783L46.9861 5.50365L39.4906 4.65865L24.3292 8.96166L23.3837 9.43715L39.5387 5.3527L40.3025 5.4388L40.4004 5.53271L43.4834 6.31239L41.0943 6.11607L41.0235 6.13177L21.8753 10.4253L21.7994 10.3813L20.9998 10.8574L41.125 6.80619L41.8069 6.88307L41.8835 6.95682L45.8802 7.85727L42.6943 7.57111L42.5513 7.59643L42.5531 7.5986L19.0831 12.0896L18.3554 12.4358L17.6405 12.5821L42.715 8.26208L43.3132 8.32951L43.3755 8.3898L48.2788 9.40431L44.294 9.02809L44.077 9.06282L44.0787 9.06499L5.99604 15.4071L5.96107 15.6123L44.3068 9.72013L44.8172 9.77768L44.8687 9.82886L50.6733 10.9528L45.8897 10.4866L45.6007 10.529L45.6025 10.5312L5.83214 16.6159L5.79738 16.8192L45.9007 11.1765L46.3235 11.2241L46.3626 11.2621L53.0719 12.4999L47.4875 11.9433L47.1247 11.9932L47.1264 11.9954L5.66413 17.8263L5.61839 18.1269L47.4924 12.6345L47.8275 12.6723L47.8561 12.6992L55.4683 14.0487L49.0831 13.4018L48.6467 13.4572L5.49856 18.9974L5.45303 19.2961L49.0865 14.0889L49.334 14.1168L76.3577 19.2509L76.2918 19.2928L59.0709 18.3577L74.6827 20.317L74.5975 20.3725L57.0418 19.4668L72.865 21.4755L72.7779 21.5308L55.0149 20.5741L71.0476 22.6321L70.9583 22.6891L52.9857 21.6831L69.228 23.7904L69.1367 23.8472L50.9568 22.7902L67.4086 24.9468L67.3171 25.0056L48.9279 23.8973L65.5892 26.1032L65.4958 26.1617L46.8971 25.0042L63.7698 27.2595L63.6742 27.3198L44.8681 26.1113L61.9485 28.4157L61.8529 28.476L42.8392 27.2184L59.3866 29.4726L26.8851 27.0714C26.8656 27.0692 26.8461 27.067 26.8266 27.0648C25.7279 26.9567 24.643 26.8482 23.5755 26.7437C21.4404 26.5345 19.3764 26.3433 17.4195 26.1641C16.4407 26.0774 15.4872 25.9936 14.5671 25.9116C13.6446 25.8333 12.7552 25.7586 11.8992 25.6858C11.0449 25.6152 10.2239 25.5463 9.44585 25.4822C8.66536 25.4219 7.92601 25.3642 7.23148 25.3115C5.84111 25.2002 4.62891 25.1188 3.62866 25.0474C2.63059 24.9744 1.84444 24.9292 1.30794 24.8924C0.772956 24.8597 0.486733 24.8432 0.486733 24.8432C0.486733 24.8432 0.769662 24.8889 1.29894 24.9723C1.82844 25.0537 2.60752 25.179 3.59747 25.3241C4.5872 25.4712 5.79015 25.6522 7.17129 25.8454C7.86272 25.9431 8.59681 26.0475 9.3718 26.1566C10.1472 26.2618 10.9614 26.3733 11.8126 26.489C12.664 26.6027 13.5484 26.7222 14.4656 26.8473C15.3835 26.9665 16.3304 27.091 17.3067 27.2169C19.2577 27.4664 21.314 27.7259 23.4436 27.9837C24.5085 28.1117 25.5909 28.2416 26.687 28.373C27.7831 28.5045 28.8913 28.6334 30.0114 28.7616C32.2473 29.0216 34.5217 29.2721 36.794 29.5243C39.0691 29.7689 41.342 30.0153 43.5812 30.246C44.7009 30.3604 45.8128 30.4739 46.9111 30.5859C48.0098 30.694 49.0946 30.8025 50.1602 30.9068C52.2953 31.1159 54.3593 31.3072 56.3162 31.4863C57.295 31.573 58.2485 31.6568 59.1686 31.7388C60.0911 31.8172 60.9804 31.8918 61.8365 31.9646C62.6927 32.0355 63.5111 32.11 64.2899 32.1682C65.0703 32.2286 65.8097 32.2863 66.504 32.3409C67.8944 32.4522 69.1066 32.5336 70.1066 32.6069C71.1047 32.68 71.8908 32.7252 72.4273 32.762C72.9623 32.7947 73.2485 32.8111 73.2485 32.8111C73.2485 32.8111 72.9656 32.7654 72.4363 32.6821C71.9031 32.5983 71.1262 32.4713 70.1363 32.3261Z" fill="#050505"/>
</svg>
