<svg width="78" height="51" viewBox="0 0 78 51" fill="none" xmlns="http://www.w3.org/2000/svg">
<path d="M19.0887 26.3905L19.4615 25.0301L20.7863 24.2589L20.3936 23.486L16.4651 18.493L18.4332 18.5836L25.6311 22.7915L33.7062 20.66L36.8411 19.0703L39.7182 18.4819L26.3931 2.75753L28.5501 2.99678L44.9412 13.0516L48.2107 12.6661L50.6332 13.7991L50.5959 16.5801L65.5894 13.7517C65.5894 13.7517 70.5245 13.0642 72.523 14.7958C74.5196 16.5271 75.3483 17.9858 75.3483 17.9858L72.4484 21.3824L58.3089 24.836L57.9202 25.8342L58.7701 30.388C58.7701 30.388 62.1164 30.0503 63.1867 31.311C64.2569 32.5735 63.7929 33.9785 63.7929 33.9785L62.5163 35.2605L60.3178 35.806L64.0062 47.7762C64.0062 47.7762 62.8802 48.66 62.2672 48.7632C61.6525 48.8643 60.877 46.8828 60.877 46.8828L47.4034 28.4446L40.2596 27.6138L29.5212 28.2287L29.0897 28.5816L29.8551 35.7094C29.8551 35.7094 28.8108 36.2851 28.4052 36.1826C27.9993 36.082 23.5307 26.9501 23.5307 26.9501L19.0887 26.3905Z" fill="white"/>
<path d="M64.5994 22.2532C64.5948 22.2526 64.5928 22.2501 64.5883 22.2496C64.5885 22.2473 64.5928 22.2501 64.5994 22.2532Z" fill="#1D191A"/>
<path d="M64.6092 22.2559C64.6049 22.2531 64.6004 22.2526 64.5981 22.2523C64.6027 22.2528 64.607 22.2556 64.6092 22.2559Z" fill="#1D191A"/>
<path d="M64.6069 22.2554C64.6145 22.2582 64.6237 22.2631 64.6312 22.2659C64.6256 22.2634 64.6181 22.2605 64.6069 22.2554Z" fill="#1D191A"/>
<path d="M46.6666 25.7898C46.6797 25.7952 46.689 25.8002 46.6965 25.803C46.6834 25.7976 46.6647 25.7896 46.6666 25.7898Z" fill="#1D191A"/>
<path d="M42.0011 26.7446C41.9955 26.742 41.9843 26.7369 41.9731 26.7317C41.9882 26.7373 41.9974 26.7423 42.0011 26.7446Z" fill="#1D191A"/>
<path d="M55.1569 24.1124C55.17 24.1178 55.1775 24.1206 55.1867 24.1256C55.1719 24.1181 55.155 24.1122 55.1569 24.1124Z" fill="#1D191A"/>
<path d="M54.2135 24.2979C54.2266 24.3033 54.2342 24.3061 54.2434 24.311C54.2284 24.3054 54.2116 24.2977 54.2135 24.2979Z" fill="#1D191A"/>
<path d="M45.7252 25.9774C45.7233 25.9772 45.742 25.9852 45.757 25.9908C45.7495 25.988 45.7383 25.9828 45.7252 25.9774Z" fill="#1D191A"/>
<path d="M61.7599 22.808C61.7749 22.8136 61.7841 22.8186 61.7917 22.8214C61.7768 22.8138 61.7581 22.8059 61.7599 22.808Z" fill="#1D191A"/>
<path d="M19.5265 43.9311L51.3084 37.6088L50.83 37.0221L19.5265 43.9311Z" fill="#202020"/>
<path d="M49.4316 35.2995L18.3974 42.1488L49.9046 35.8817L49.4316 35.2995Z" fill="#202020"/>
<path d="M15.8401 20.305L2.24155 23.2868L16.057 20.5704L15.8401 20.305Z" fill="#202020"/>
<path d="M3.37041 25.0672L17.4602 22.2974L17.2399 22.0278L3.37041 25.0672Z" fill="#202020"/>
<path d="M74.9258 16.7296C74.6655 16.4848 74.4279 16.2465 74.1975 16.0149C73.2434 15.0611 72.4178 14.2355 70.9017 13.7845C68.616 13.1057 65.6809 13.5661 64.1349 13.9011C62.0748 14.3485 52.8114 16.0053 50.7807 16.3659L50.8578 16.1161L50.8892 15.9766C51.0221 15.3707 51.085 14.5003 50.6358 13.7935C49.9337 12.6899 48.6044 12.2149 46.8911 12.4527C46.6007 12.4924 46.3495 12.5307 46.13 12.5667C45.4416 12.6791 44.7384 12.5234 44.1595 12.133C40.6924 9.7893 29.328 3.18633 29.2921 3.15682C29.2921 3.15682 28.9877 3.07745 28.553 2.98927C28.6071 3.03063 28.6595 3.06983 28.7076 3.11247C29.4904 3.79616 44.6309 13.0421 44.8157 13.2098L44.9134 13.2992L44.9215 13.2962L47.6066 15.7143L45.172 13.2285C45.3974 13.1755 45.9371 13.062 46.9559 12.9203C47.8354 12.7981 49.4336 12.7824 50.2391 14.0465C50.5701 14.5676 50.5504 15.2294 50.458 15.7361C50.3047 15.7756 50.1739 15.8059 50.0595 15.8302C50.0556 15.7436 50.0482 15.6527 50.0374 15.5574C50.0194 15.4046 49.9926 15.2429 49.9554 15.0859C49.9407 15.0079 49.9161 14.9307 49.8954 14.8539C49.8744 14.7791 49.8475 14.7055 49.8261 14.6346C49.8047 14.5636 49.7749 14.4976 49.7505 14.436C49.7283 14.3728 49.6994 14.3167 49.676 14.2631C49.6505 14.2113 49.6306 14.162 49.6079 14.1203C49.5852 14.0785 49.5657 14.043 49.5513 14.014C49.5187 13.9555 49.5009 13.9221 49.5009 13.9221C49.5009 13.9221 49.5026 13.9595 49.5068 14.0266C49.5089 14.0601 49.5103 14.0995 49.5131 14.1448C49.5158 14.1902 49.5138 14.2429 49.5135 14.2977C49.5129 14.3544 49.5141 14.4133 49.5069 14.4771C49.5017 14.5412 49.5003 14.6057 49.4905 14.6751C49.4807 14.7445 49.475 14.8124 49.4631 14.8835C49.4492 14.9544 49.4394 15.0238 49.4236 15.0945C49.3922 15.234 49.3553 15.3708 49.3121 15.4933C49.2622 15.6404 49.2085 15.7695 49.1601 15.8679L48.5857 15.8031L49.628 16.6179L42.5482 18.0684L26.3965 2.74615C26.0659 2.75981 25.7872 2.81654 25.6148 2.93813L36.354 15.5211L38.0022 17.4071C38.0648 17.4768 38.1131 17.5527 38.1529 17.6336L38.1737 17.6575C38.4711 18.0084 38.3811 18.5114 38.0439 18.7574C37.9543 18.8746 32.9063 19.8686 32.9063 19.8686L32.7023 19.2971L37.1793 18.417L36.6494 17.7658L32.4822 18.6788L32.036 17.4239L35.7759 16.6879L35.2514 16.0412L31.8131 16.7955L30.9488 14.3672C30.9488 14.3672 29.2585 14.21 28.2412 14.5987C27.7624 15.8747 27.3616 16.9459 27.025 17.8462L21.8977 18.9703L22.3851 19.321L26.7979 18.4533C26.5629 19.079 26.3662 19.6072 26.198 20.0564L24.0612 20.5246L24.5739 20.8938L25.9899 20.6167C25.7577 21.2349 25.6005 21.6559 25.4941 21.9397L25.1624 22.1021L18.4322 18.5757L17.8805 18.6389L24.5631 22.3969L22.6867 23.3175L22.7285 23.2771L18.4121 19.588L21.7682 23.7683L21.3287 23.9831L16.4602 18.4846C16.4209 18.5037 16.3792 18.5264 16.3353 18.5508L16.0328 18.7322L16.4826 19.2941L20.7795 24.2503C20.7126 24.2878 20.6349 24.3339 20.5534 24.3795L24.881 22.8088L24.6681 23.4116L24.3668 24.3295L20.2896 25.2253L22.0748 24.2279C21.8154 24.3044 21.5578 24.3831 21.2985 24.4596C20.814 24.6048 20.0529 24.7364 19.4566 25.0217C18.9162 25.2801 18.485 25.8387 18.6302 26.4623C18.7871 27.1381 19.5177 27.3987 20.1333 27.4975C21.2417 27.6733 22.3586 27.809 23.4717 27.96L23.5542 28.1495L28.1098 36.2668L28.5328 36.1284L24.0767 27.8754L23.8748 27.408L24.3562 27.3076L28.2027 33.6702L25.4557 27.2317C26.6914 27.2692 27.934 27.4014 28.4308 27.4594L28.6111 28.9527L29.8543 35.6995L30.1756 35.5947L29.2069 28.9669C30.2545 29.1262 33.7855 29.6006 36.3487 29.1551C39.3914 28.6265 41.4101 28.2508 41.4101 28.2508C44.1839 28.5439 46.7232 29.9446 48.4508 32.1334L61.6494 48.8581L61.8317 48.8395C61.8514 48.8378 62.0202 48.8177 62.2621 48.7568L53.5701 33.0611L50.1034 27.4993C51.2794 27.1618 52.7464 26.7807 54.2956 26.4519C56.6074 25.9604 57.4636 26.0276 57.7355 26.0837L58.5226 30.8635C58.5537 31.057 58.7629 31.1648 58.9386 31.0828C59.2138 30.9532 59.7268 30.729 59.9254 30.6867C60.2004 30.6276 61.9818 30.6541 62.6629 31.1109C63.3347 31.5627 64.1495 32.9532 63.4763 34.1818C63.3823 34.1986 63.2365 34.2233 63.0572 34.2501C63.0596 34.2288 63.064 34.2078 63.0664 34.1865C63.0762 34.0818 63.0921 33.9759 63.0922 33.8701C63.0943 33.7646 63.0982 33.6612 63.0899 33.5604C63.0836 33.4598 63.0812 33.3596 63.0663 33.2659C63.0534 33.1724 63.0421 33.081 63.0281 32.9972C63.0101 32.9129 62.9935 32.8346 62.9784 32.7604C62.9498 32.6142 62.9061 32.4977 62.8861 32.4151C62.8619 32.334 62.8497 32.2856 62.8497 32.2856C62.8497 32.2856 62.8462 32.3342 62.8424 32.42C62.8348 32.5053 62.8367 32.6269 62.8148 32.7694C62.8048 32.8408 62.7961 32.9181 62.785 32.9991C62.7719 33.0799 62.7527 33.1639 62.7351 33.2501C62.7195 33.3365 62.6902 33.4233 62.6666 33.5107C62.6449 33.5984 62.6098 33.6845 62.5767 33.7689C62.5476 33.8538 62.5034 33.933 62.4672 34.0112C62.4271 34.089 62.3837 34.1605 62.3428 34.2283C62.3126 34.27 62.2846 34.3099 62.2568 34.3479C62.0094 34.3709 61.7431 34.3879 61.4681 34.3941C61.4632 34.2467 61.4529 34.0947 61.4386 33.9442C61.421 33.7699 61.3972 33.5988 61.3702 33.439C61.3451 33.2795 61.3145 33.1331 61.2874 33.0086C61.2623 32.8843 61.2347 32.7813 61.2174 32.7088C61.2001 32.6364 61.191 32.5961 61.191 32.5961C61.191 32.5961 61.1842 32.6385 61.1721 32.7115C61.1599 32.7846 61.1462 32.8888 61.1226 33.0115C61.099 33.1342 61.071 33.278 61.0364 33.4288C61.0017 33.5796 60.9602 33.7395 60.9133 33.8948C60.8625 34.0673 60.8029 34.231 60.7432 34.379C60.4436 34.3609 60.1498 34.3258 59.8765 34.2656L59.3836 34.1552L64.0073 47.7666C64.0698 47.6992 64.1288 47.6275 64.1843 47.5515L64.2768 47.4267L60.937 37.2292C60.7457 36.6847 60.6244 36.3361 60.5459 36.1118L60.5968 36.1116C62.981 35.9162 63.8542 34.7043 63.8542 34.7043L63.9209 34.5982C64.8724 33.0738 63.98 31.277 62.9986 30.6179C62.1045 30.0177 60.1216 30.0409 59.8107 30.1058L59.8047 30.107C59.383 30.1986 58.9702 29.917 58.9006 29.4919L58.2788 25.712C59.9663 24.7995 61.7771 24.1301 63.654 23.7266L70.9566 22.1583C70.9566 22.1583 71.5779 22.0854 72.382 21.798C73.3326 21.4977 74.5192 20.9969 75.1534 20.2359C75.2056 20.1732 75.245 20.1189 75.2801 20.068C75.4181 19.8858 75.5474 19.6947 75.6593 19.484C75.6593 19.484 75.6718 19.46 75.6904 19.417C75.7907 19.1874 76.2326 17.9601 74.9258 16.7296ZM38.1636 27.4597C38.1692 27.4623 38.1729 27.4647 38.1784 27.4673C38.5193 27.3451 38.6689 27.1132 38.6249 26.7733C39.0733 27.0354 38.252 27.8046 38.1636 27.4597ZM39.1071 27.2742C39.1127 27.2768 39.1163 27.2792 39.1219 27.2818C39.4628 27.1596 39.6123 26.9277 39.5684 26.5878C40.017 26.848 39.1955 27.6192 39.1071 27.2742ZM40.0508 27.0868C40.0564 27.0894 40.06 27.0918 40.0656 27.0944C40.4065 26.9722 40.556 26.7403 40.5121 26.4004C40.9604 26.6625 40.139 27.4337 40.0508 27.0868ZM40.9942 26.9013C40.9998 26.9039 41.0035 26.9063 41.0091 26.9089C41.3499 26.7867 41.4995 26.5548 41.4555 26.2149C41.9041 26.4751 41.0807 27.246 40.9942 26.9013ZM41.936 26.7137C41.9416 26.7163 41.9452 26.7187 41.9508 26.7212C42.2917 26.5991 42.4412 26.3672 42.3973 26.0273C42.8476 26.2896 42.0242 27.0605 41.936 26.7137ZM42.8794 26.5282C42.885 26.5308 42.8887 26.5332 42.8943 26.5358C43.2351 26.4136 43.3847 26.1817 43.3407 25.8418C43.7893 26.1019 42.9679 26.8731 42.8794 26.5282ZM43.8231 26.3408C43.8287 26.3434 43.8324 26.3457 43.838 26.3483C44.1788 26.2261 44.3284 25.9942 44.2844 25.6544C44.7328 25.9164 43.9113 26.6876 43.8231 26.3408ZM44.7666 26.1553C44.7722 26.1579 44.7758 26.1603 44.7814 26.1628C45.1223 26.0407 45.2718 25.8088 45.2279 25.4689C45.6765 25.729 44.855 26.5002 44.7666 26.1553ZM45.7101 25.9698C45.7156 25.9724 45.7193 25.9748 45.7249 25.9774C46.0657 25.8552 46.2153 25.6233 46.1713 25.2834C46.6199 25.5435 45.7985 26.3147 45.7101 25.9698ZM46.6537 25.7824C46.6593 25.785 46.663 25.7873 46.6686 25.7899C47.0094 25.6677 47.159 25.4359 47.115 25.096C47.5636 25.3561 46.7402 26.1271 46.6537 25.7824ZM47.5972 25.5969C47.6028 25.5995 47.6064 25.6019 47.612 25.6044C47.9529 25.4823 48.1024 25.2504 48.0585 24.9105C48.5071 25.1706 47.6837 25.9416 47.5972 25.5969ZM48.5389 25.4093C48.5445 25.4118 48.5482 25.4142 48.5538 25.4168C48.8946 25.2946 49.0442 25.0627 49.0002 24.7228C49.4508 24.9832 48.6274 25.7542 48.5389 25.4093ZM49.4824 25.2238C49.488 25.2264 49.4917 25.2287 49.4972 25.2313C49.8381 25.1091 49.9877 24.8772 49.9437 24.5373C50.3923 24.7975 49.5708 25.5687 49.4824 25.2238ZM50.4261 25.0364C50.4317 25.0389 50.4353 25.0413 50.4409 25.0439C50.7818 24.9217 50.9313 24.6898 50.8874 24.3499C51.336 24.6101 50.5145 25.3813 50.4261 25.0364ZM51.3696 24.8509C51.3751 24.8535 51.3788 24.8558 51.3844 24.8584C51.7252 24.7362 51.8748 24.5043 51.8308 24.1644C52.2794 24.4246 51.458 25.1958 51.3696 24.8509ZM52.3132 24.6634C52.3188 24.666 52.3225 24.6684 52.3281 24.671C52.6689 24.5488 52.8185 24.3169 52.7745 23.977C53.2229 24.2391 52.4014 25.0103 52.3132 24.6634ZM53.2567 24.478C53.2623 24.4805 53.2659 24.4829 53.2715 24.4855C53.6124 24.3633 53.7619 24.1314 53.718 23.7915C54.1666 24.0517 53.3432 24.8226 53.2567 24.478ZM54.1984 24.2903C54.204 24.2929 54.2077 24.2953 54.2133 24.2979C54.5541 24.1757 54.7037 23.9438 54.6597 23.6039C55.11 23.8662 54.2867 24.6372 54.1984 24.2903ZM55.1419 24.1048C55.1475 24.1074 55.1512 24.1098 55.1567 24.1124C55.4976 23.9902 55.6472 23.7583 55.6032 23.4184C56.0518 23.6786 55.2303 24.4497 55.1419 24.1048ZM56.0856 23.9174C56.0912 23.92 56.0948 23.9224 56.1004 23.925C56.4413 23.8028 56.5908 23.5709 56.5469 23.231C56.9953 23.4931 56.1738 24.2643 56.0856 23.9174ZM57.0291 23.7319C57.0346 23.7345 57.0383 23.7369 57.0439 23.7395C57.3847 23.6173 57.5343 23.3854 57.4903 23.0455C57.9389 23.3056 57.1175 24.0768 57.0291 23.7319ZM57.9727 23.5445C57.9783 23.5471 57.982 23.5495 57.9876 23.552C58.3284 23.4299 58.478 23.198 58.434 22.8581C58.8824 23.1202 58.0609 23.8913 57.9727 23.5445ZM58.9162 23.359C58.9218 23.3616 58.9254 23.364 58.931 23.3666C59.2719 23.2444 59.4214 23.0125 59.3775 22.6726C59.8261 22.9327 59.0027 23.7037 58.9162 23.359ZM59.8597 23.1735C59.8653 23.1761 59.8689 23.1785 59.8745 23.1811C60.2154 23.0589 60.3649 22.827 60.321 22.4871C60.7695 22.7472 59.9462 23.5182 59.8597 23.1735ZM60.8014 22.9859C60.807 22.9885 60.8107 22.9908 60.8162 22.9934C61.1571 22.8712 61.3067 22.6394 61.2627 22.2995C61.7132 22.5598 60.8898 23.3308 60.8014 22.9859ZM61.7449 22.8004C61.7505 22.803 61.7541 22.8054 61.7597 22.8079C62.1006 22.6858 62.2501 22.4539 62.2062 22.114C62.6548 22.3741 61.8333 23.1453 61.7449 22.8004ZM62.6886 22.613C62.6941 22.6156 62.6978 22.6179 62.7034 22.6205C63.0443 22.4983 63.1938 22.2664 63.1498 21.9265C63.5984 22.1867 62.777 22.9579 62.6886 22.613ZM63.632 22.4275C63.6376 22.4301 63.6413 22.4324 63.6469 22.435C63.9877 22.3129 64.1373 22.0809 64.0933 21.7411C64.5419 22.0012 63.7204 22.7724 63.632 22.4275ZM64.5757 22.2401C64.5813 22.2427 64.5849 22.245 64.5905 22.2476C64.9314 22.1254 65.0809 21.8935 65.037 21.5536C65.4856 21.8138 64.6641 22.585 64.5757 22.2401ZM74.0936 17.7699L32.6495 26.5071L72.9495 19.4057C72.9113 19.4837 72.8974 19.5546 72.9096 19.6206L36.5885 26.8023L36.5638 26.8132C36.5494 26.8194 35.0696 27.4361 31.8257 26.9C31.545 26.8527 31.2285 26.8111 30.8842 26.7723C30.0622 26.6796 29.0811 26.6082 28.0456 26.5502L71.3996 17.5681L26.5405 25.5148L32.1089 23.1712L25.2109 24.6774L36.1764 21.4575C36.1764 21.4575 35.6014 21.3809 34.6663 21.0581C34.5569 21.0203 34.4454 20.9666 34.3333 20.9011L67.7196 14.3855L36.8168 19.5651L39.7252 18.9763L52.3023 16.5767C55.6328 15.9806 62.4946 14.7426 64.2354 14.3649C66.8276 13.8012 69.1478 13.7572 70.7662 14.2393C72.1686 14.656 72.9148 15.4041 73.8618 16.3511C73.9762 16.4659 74.0942 16.583 74.214 16.7023C74.2663 17.0725 74.2422 17.4419 74.0936 17.7699Z" fill="#050505"/>
</svg>
