<svg width="872" height="324" viewBox="0 0 872 324" fill="none" xmlns="http://www.w3.org/2000/svg">
<path d="M864.804 79.6357C865.223 77.2246 865.704 74.4691 866.219 71.4922C866.501 71.9596 867.152 73.0176 867.865 74.1985C868.091 69.3763 868.266 65.6859 868.323 64.4927C866.943 63.3855 865.862 62.9796 864.889 61.6633C862.304 58.1574 860.352 47.4183 857.903 52.0559C855.42 47.5905 853.564 44.2568 851.398 40.3573C851.301 44.7243 851.245 47.1231 851.194 49.5341C851.007 49.6818 850.82 49.8417 850.634 49.9893C850.294 47.4921 849.955 45.0072 849.338 40.4803C848.829 46.1144 848.496 49.8171 848.213 52.9662C846.725 52.1174 845.458 51.3794 844.01 50.5429C843.953 48.6116 843.885 46.0036 843.806 43.285C842.595 43.5802 841.458 43.8632 840.321 44.1461C840.327 44.4783 840.333 44.8227 840.338 45.1672C841.091 45.9298 841.843 46.6925 843.223 48.0826C841.374 52.5849 839.988 53.3722 838.811 49.4111C837.617 45.4008 837.781 45.0934 836.356 48.5624C835.609 50.383 834.721 51.4901 833.279 53.9873C833.737 49.571 833.991 47.1231 834.404 43.1497C833.363 44.6874 832.571 46.9878 831.87 46.6925C828.278 45.1917 824.714 42.6699 821.122 41.1937C815.793 38.9918 810.475 32.0784 805.09 40.6156C804.615 30.3316 802.205 32.6197 800.616 31.98C797.233 30.6022 793.55 33.4808 790.433 29.8519C786.841 25.6694 783.351 26.0999 779.781 25.288C778.91 25.0912 778.044 24.1563 777.173 23.9595C775.561 23.6028 773.938 23.7257 772.331 23.2706C771.675 23.086 770.99 20.9702 770.408 21.3638C765.447 24.7344 760.576 22.1758 755.688 19.3833C754.602 18.7683 753.431 18.6453 752.362 19.3956C750.326 20.8103 748.334 24.6237 746.332 24.5868C742.151 24.513 737.977 21.7452 733.796 21.6345C728.501 21.4869 723.201 23.6765 717.917 23.3075C714.619 23.0861 711.35 19.9123 708.012 22.5817C707.605 22.9138 707.067 20.269 706.536 19.8877C705.812 19.371 705.003 19.1496 704.301 19.8016C703.56 20.5028 702.927 23.2952 702.202 23.5412C700.042 24.2916 697.864 22.6801 695.686 22.594C692.705 22.4833 689.695 20.3306 686.606 20.6504C681.464 21.1794 676.316 20.146 671.169 20.1214C669.313 20.1091 667.452 20.306 665.597 20.3306V18.8298H536.947C536.336 14.6473 535.46 10.6124 534.741 6.49146C534.447 7.40176 534.159 8.31202 533.87 9.21003C534.588 11.1413 535.313 13.0604 536.059 15.0655C535.895 16.6647 535.726 17.8948 535.465 18.8174H507.616C506.762 17.9563 505.823 17.8949 504.884 17.858C504.098 17.8334 503.306 18.4361 502.378 18.8174H499.889C499.476 17.1937 499.114 15.8036 498.769 14.5366C498.735 14.4136 498.486 15.0286 498.209 15.5453C498.186 16.5294 498.164 17.5873 498.135 18.8174H471.814C471.712 18.35 471.61 17.858 471.486 17.5627C471.344 17.9318 471.203 18.3869 471.067 18.8174H466.004C465.54 17.9932 465.099 17.1814 464.601 16.3818C464.279 17.6488 463.934 18.3008 463.583 18.8174H461.58C460.828 17.9317 460.059 16.4556 459.284 14.6104C458.854 16.4679 458.537 17.7349 458.243 18.8174H456.161C456.014 18.227 455.895 17.8456 455.72 17.046C455.448 18.2147 455.171 18.5222 454.9 18.8174H453.995C453.237 17.8579 452.609 15.5207 452.411 15.8651C450.612 19.0266 449.673 16.3079 449 14.352C448.027 15.656 447.076 17.3905 446.137 18.8174H431.559C430.241 10.9199 429.517 14.0199 428.335 18.8174H424.494C423.973 18.1778 423.453 17.5381 422.882 16.8492C422.621 17.3659 422.242 18.1286 421.897 18.8174H420.025C416.404 15.7175 413.067 16.9968 409.803 16.8123C409.673 16.8 409.543 17.3413 409.311 17.8703C409.379 18.1655 409.458 18.5222 409.52 18.8174H407.478C406.477 17.1813 405.515 15.6191 404.48 13.9215C404.604 15.8159 404.706 17.3413 404.802 18.8174H394.433C394.648 17.9563 394.869 17.1076 395.084 16.4064C392.374 17.2675 389.664 18.0301 386.955 18.8174H380.421C379.482 14.2659 378.175 17.1567 377.587 18.8174H366.579C366.318 18.1901 366.098 17.6612 365.804 16.9477C365.775 17.6366 365.753 18.1778 365.73 18.8174H363.264C363.066 18.0178 362.822 17.0461 362.641 16.308C362.5 17.1322 362.353 17.9809 362.206 18.8174H239.926C239.315 14.635 238.438 10.6001 237.72 6.47914C237.431 7.38945 237.137 8.29978 236.849 9.19779C237.567 11.1291 238.291 13.0481 239.038 15.0532C238.874 16.6524 238.704 17.8826 238.444 18.8052H210.595C209.741 17.9441 208.802 17.8826 207.863 17.8457C207.077 17.8211 206.285 18.4239 205.357 18.8052H202.868C202.455 17.1814 202.093 15.7913 201.748 14.5243C201.714 14.4012 201.465 15.0163 201.188 15.533C201.165 16.5171 201.142 17.5751 201.108 18.8052H174.787C174.685 18.3377 174.583 17.8457 174.459 17.5504C174.317 17.9195 174.176 18.3747 174.04 18.8052H168.977C168.513 17.981 168.072 17.1691 167.574 16.3695C167.252 17.6365 166.907 18.2885 166.556 18.8052H164.554C163.801 17.9195 163.032 16.4433 162.257 14.5981C161.827 16.4556 161.51 17.7227 161.216 18.8052H159.134C158.987 18.2147 158.868 17.8334 158.693 17.0338C158.421 18.2024 158.144 18.51 157.873 18.8052H156.968C156.21 17.8457 155.582 15.5084 155.384 15.8528C153.585 19.0143 152.646 16.2957 151.973 14.3398C151 15.6437 150.049 17.3782 149.11 18.8052H134.532C133.214 10.9077 132.49 14.0076 131.308 18.8052H127.467C126.947 18.1655 126.426 17.5258 125.855 16.8369C125.595 17.3536 125.216 18.1163 124.87 18.8052H122.998C119.378 15.7052 116.04 16.9846 112.776 16.8001C112.646 16.7878 112.516 17.329 112.284 17.858C112.618 19.3587 112.912 20.6996 113.653 24.0333C111.26 20.1215 109.518 17.2798 107.458 13.9215C107.713 17.8087 107.871 20.2445 108.092 23.5535C107.079 23.5535 105.773 24.3778 105.66 23.4182C104.721 15.5822 103.431 20.1952 102.605 21.4377C101.688 16.8984 100.885 12.9497 99.7877 7.52474H124.078C124.407 1.47243 123.383 1.54623 122.116 1.74305C116.883 2.54264 111.639 3.82204 106.406 3.48991C103.035 3.28078 99.454 8.11526 96.2635 0.0455199C96.1503 -0.249714 95.7261 0.968106 95.4432 1.48477C94.8153 2.6657 94.1874 3.84661 93.4577 5.22437C95.5733 7.83228 97.6098 10.3295 100.184 13.5033C99.1485 15.0656 98.7073 16.1973 98.2434 16.3449C93.9102 17.735 89.5714 18.9774 85.2325 20.2075C84.7121 20.3551 83.8126 20.7611 83.7108 20.023C82.7095 12.47 80.905 17.8088 80.3902 19.3095C77.7315 27.0471 74.6767 22.2496 71.8653 23.9349C71.5259 24.144 71.0846 22.4587 70.7056 21.573C70.106 20.183 69.5233 18.7191 68.7936 16.96C68.6408 20.7119 68.556 22.8155 68.375 27.3424C67.2096 22.6556 66.412 19.4448 65.6314 16.308C65.1166 19.3095 64.5848 22.3725 64.0587 25.4233C64.2567 25.7677 64.5905 26.3459 65.3146 27.6007C63.8834 28.2281 62.95 28.634 62.0166 29.0277C61.96 26.9734 61.9091 25.3003 61.8639 23.615C61.1341 24.0333 59.9349 23.6396 59.7425 24.9928C58.2435 35.7442 54.9172 31.9308 52.8524 33.3086C48.3948 36.2732 43.6147 33.0503 38.9647 32.6443C38.4726 32.5951 37.9861 34.6002 37.4657 35.3383C36.1476 37.2081 34.8408 39.4223 33.4662 40.2711C33.1438 40.468 32.5838 35.7811 32.0803 33.0379C28.9407 32.6565 26.0727 35.572 24.2568 49.4111C23.8382 43.8631 23.6685 41.5997 23.4818 39.1148C21.1002 39.1148 18.696 39.1271 16.2975 39.1148C14.7475 39.1025 13.0788 37.9831 12.6545 45.9422C12.5923 47.1477 11.7154 48.5008 11.2007 48.5869C7.94228 49.1036 5.35143 58.342 5.20435 70.914C8.18553 68.2569 8.491 72.058 6.79393 80.3369C7.61984 80.6813 8.3213 80.9643 9.91655 81.6163C6.33573 88.2837 2.1383 89.809 2.63611 106.797C3.19614 105.666 3.75052 104.558 4.89322 102.246C4.70088 109.098 4.55946 114.092 4.40107 119.812C4.62169 121.325 5.47022 124.487 5.37406 127.242C5.27789 129.924 4.21438 132.175 3.62607 134.426C5.1308 135.878 6.10945 136.825 7.0881 137.772C7.00324 138.916 6.91839 140.06 6.82788 141.204C5.17606 140.7 3.51859 140.208 1.86677 139.704C1.79889 140.368 1.72535 141.02 1.65747 141.684C3.03209 144.71 4.40672 147.736 5.82095 150.849C2.33064 155.474 2.28538 155.818 4.0673 164.516C1.21057 164.983 1.21057 164.983 1.92334 181.061C2.88502 183.78 3.55253 185.674 4.21439 187.544C3.56385 187.938 2.9133 188.331 2.33629 188.688C2.61348 193.805 2.68703 197.742 3.06604 201.272C3.31494 203.573 3.99377 205.319 4.50855 207.226C5.05727 209.268 5.63427 211.2 6.19996 213.192C6.38664 212.467 6.56765 211.741 6.75433 211.015C6.38098 208.665 6.00197 206.304 5.54942 203.487C16.2466 203.979 16.4616 204.151 18.0851 214.619C15.6526 215.542 13.4408 216.378 11.212 217.215C11.4609 218.876 11.6872 220.352 11.9078 221.828C11.1328 222.726 10.4879 223.476 9.84866 224.227C9.87694 224.743 9.90523 225.248 9.93352 225.764C13.6388 227.93 17.3441 230.082 21.0493 232.247C21.1002 231.423 21.1511 230.611 21.2021 229.787C20.3196 228.889 19.4371 227.979 18.5546 227.081C18.5942 226.01 18.6395 224.953 18.6847 223.882C25.49 226.552 32.2952 229.221 38.3142 231.571C38.8912 227.843 39.1514 224.928 39.3607 224.977C41.8045 225.457 44.2426 226.404 46.6807 227.216C46.6751 227.942 46.6694 228.668 46.6638 229.381C45.9001 229.885 45.1308 230.377 44.5085 230.783C44.6839 232.506 44.8592 234.228 45.012 235.741H0.0848501C0.0565656 237.082 0.0282845 238.423 0 239.763C2.76622 241.535 5.53245 243.319 7.19558 244.377C6.77697 246.788 6.29613 249.543 5.78135 252.52C5.49851 252.053 4.84796 250.995 4.13519 249.814C3.90892 254.636 3.73355 258.326 3.67699 259.52C5.05727 260.627 6.13773 261.033 7.11072 262.349C9.69592 265.855 11.6476 276.594 14.097 271.956C16.5804 276.422 18.4358 279.755 20.6024 283.655C20.6986 279.288 20.7552 276.889 20.8061 274.478C20.9928 274.33 21.1794 274.171 21.3661 274.023C21.7055 276.52 22.0449 279.005 22.6615 283.532C23.1707 277.898 23.5044 274.195 23.7873 271.046C25.275 271.895 26.5422 272.633 27.9903 273.469C28.0469 275.401 28.1148 278.009 28.194 280.727C29.4046 280.432 30.5416 280.149 31.6786 279.866C31.673 279.534 31.6673 279.19 31.6617 278.845C30.9093 278.082 30.1569 277.32 28.7766 275.93C30.6265 271.427 32.0124 270.64 33.189 274.601C34.3826 278.611 34.2186 278.919 35.6441 275.45C36.3908 273.629 37.279 272.522 38.7215 270.025C38.2633 274.441 38.0087 276.889 37.5958 280.863C38.6366 279.325 39.4286 277.024 40.13 277.32C43.7222 278.82 47.286 281.342 50.8782 282.819C56.207 285.02 61.5244 291.934 66.9098 283.397C67.385 293.681 69.7948 291.393 71.3844 292.032C74.7673 293.41 78.4499 290.531 81.5668 294.16C85.159 298.343 88.6493 297.912 92.2188 298.724C93.09 298.921 93.9555 299.856 94.8266 300.053C96.4388 300.409 98.0624 300.287 99.6689 300.742C100.325 300.926 101.01 303.042 101.592 302.648C106.553 299.278 111.424 301.836 116.312 304.629C117.398 305.244 118.569 305.367 119.638 304.617C119.904 304.432 120.175 304.125 120.441 303.866H165.34C165.385 303.928 165.425 304.1 165.464 304.125C166.188 304.641 166.997 304.863 167.699 304.211C167.761 304.149 167.818 303.952 167.874 303.866H200.56C200.65 303.866 200.741 303.879 200.831 303.879C200.978 303.879 201.12 303.866 201.261 303.866H234.614C234.637 303.94 234.671 304.014 234.694 304.088C234.829 304.014 234.925 303.94 235.056 303.866H348.782C354.246 305.884 359.779 307.938 365.475 310.042C365.108 307.655 364.825 305.798 364.525 303.866H411.93C412.405 304.125 412.875 304.358 413.35 304.629C414.436 305.244 415.607 305.367 416.676 304.617C416.942 304.432 417.213 304.125 417.479 303.866H462.378C462.423 303.928 462.463 304.1 462.503 304.125C463.227 304.641 464.036 304.863 464.737 304.211C464.799 304.149 464.856 303.952 464.912 303.866H497.598C497.689 303.866 497.779 303.879 497.87 303.879C498.017 303.879 498.158 303.866 498.299 303.866H531.653C531.675 303.94 531.709 304.014 531.732 304.088C531.867 304.014 531.964 303.94 532.094 303.866H631.915C632.487 308.553 633.505 312.957 634.297 317.508C634.586 316.598 634.88 315.688 635.168 314.79C634.45 312.859 633.726 310.94 632.979 308.934C633.256 306.228 633.641 304.752 634.331 303.879H639.926C640.05 303.915 640.107 303.915 640.237 303.965C640.242 303.94 640.248 303.903 640.248 303.879H647.014C647.048 304.051 647.104 304.346 647.127 304.457C647.212 304.211 647.246 304.112 647.319 303.879H660.568C661.614 305.97 662.876 306.093 664.137 306.13C664.935 306.154 665.727 305.539 666.677 305.17C667.118 303.706 667.775 301.504 668.001 300.742C669.053 304.863 669.641 307.212 670.252 309.463C670.286 309.586 670.535 308.971 670.812 308.455C670.858 306.4 670.914 304.088 671.005 300.336C672.934 300.889 674.766 301.603 676.605 301.898C678.245 302.156 679.892 302.046 681.532 301.935C682.958 301.836 684.389 301.123 685.814 301.357C688.671 301.812 691.907 306.007 694.271 302.562C696.715 299.007 696.811 304.752 697.541 306.449C698.401 304.186 699.272 300.225 699.866 300.68C701.382 301.824 702.774 304.961 704.426 307.63C705.976 301.529 707.871 304.924 709.737 309.402C711.729 300.84 711.91 300.717 713.301 306.966C714.727 300.815 716.271 308.738 716.611 308.147C718.409 304.986 719.349 307.704 720.022 309.66C721.888 307.163 723.676 302.944 725.486 302.784C728.156 302.55 730.758 303.928 733.446 300.852C734.571 299.561 736.879 301.701 737.377 304.813C738.786 313.584 739.498 310.005 740.754 304.936C741.139 303.374 742.265 304.088 743.272 303.657C744.29 304.9 745.127 305.921 746.14 307.163C746.564 306.314 747.424 304.604 747.673 304.1C751.825 308.971 755.558 306.991 759.218 307.2C759.348 307.212 759.479 306.671 759.71 306.142C759.377 304.641 759.083 303.3 758.342 299.967C760.734 303.879 762.477 306.72 764.536 310.078C764.281 306.191 764.123 303.755 763.902 300.446C764.915 300.446 766.222 299.622 766.335 300.582C767.274 308.418 768.564 303.805 769.389 302.562C770.306 307.102 771.109 311.05 772.207 316.475H747.916C747.588 322.528 748.612 322.454 749.879 322.257C755.111 321.457 760.355 320.178 765.588 320.51C768.96 320.719 772.54 315.885 775.731 323.954C775.844 324.25 776.268 323.032 776.551 322.515C777.179 321.334 777.807 320.153 778.537 318.776C776.421 316.168 774.384 313.671 771.811 310.497C772.846 308.934 773.287 307.803 773.751 307.655C778.084 306.265 782.423 305.023 786.762 303.792C787.282 303.645 788.182 303.239 788.284 303.977C789.285 311.53 791.089 306.191 791.604 304.69C794.263 296.953 797.318 301.75 800.129 300.065C800.469 299.856 800.91 301.541 801.289 302.427C801.888 303.817 802.471 305.281 803.201 307.04C803.353 303.288 803.438 301.185 803.619 296.658C804.785 301.344 805.582 304.555 806.363 307.692C806.878 304.69 807.409 301.627 807.936 298.577C807.738 298.232 807.404 297.654 806.68 296.399C808.111 295.772 809.044 295.378 809.978 294.972C810.034 297.027 810.085 298.7 810.13 300.385C810.86 299.967 812.059 300.36 812.252 299.007C813.751 288.256 817.077 292.069 819.142 290.691C823.6 287.727 828.38 290.95 833.03 291.356C833.522 291.405 834.008 289.4 834.529 288.662C835.847 286.792 837.154 284.578 838.528 283.729C838.851 283.532 839.411 288.219 839.914 290.962C843.054 291.343 845.922 288.428 847.737 274.589C848.156 280.137 848.326 282.4 848.513 284.885C850.894 284.885 853.298 284.873 855.697 284.885C857.247 284.897 858.916 286.017 859.34 278.058C859.402 276.852 860.279 275.499 860.794 275.413C864.052 274.896 866.643 265.658 866.79 253.086C863.809 255.743 863.503 251.942 865.2 243.663C864.374 243.319 863.673 243.036 862.078 242.384C865.659 235.716 869.856 234.191 869.358 217.203C868.798 218.334 868.244 219.442 867.101 221.754C867.293 214.902 867.435 209.908 867.593 204.188C867.373 202.675 866.524 199.513 866.62 196.758C866.716 194.076 867.78 191.825 868.368 189.574C866.864 188.122 865.885 187.175 864.906 186.228C864.991 185.084 865.076 183.94 865.166 182.796C866.818 183.3 868.476 183.792 870.128 184.296C870.195 183.632 870.269 182.98 870.337 182.316C868.962 179.29 867.588 176.263 866.173 173.151C869.664 168.526 869.709 168.181 867.927 159.484C870.784 159.017 870.784 159.017 870.071 142.939C869.109 140.22 868.442 138.326 867.78 136.456C868.43 136.062 869.081 135.669 869.658 135.312C869.381 130.195 869.307 126.258 868.928 122.728C868.679 120.427 868.001 118.68 867.486 116.774C866.937 114.732 866.36 112.8 865.794 110.808C865.608 111.533 865.427 112.259 865.24 112.985C865.613 115.335 865.992 117.696 866.445 120.513C855.748 120.021 855.533 119.849 853.909 109.381C856.342 108.458 858.554 107.621 860.782 106.785C860.533 105.124 860.307 103.648 860.087 102.172C860.862 101.274 861.506 100.524 862.146 99.7731C862.117 99.2565 862.089 98.7521 862.061 98.2355C858.356 96.0704 854.65 93.9177 850.945 91.7527C850.894 92.5769 850.843 93.3888 850.792 94.213C851.675 95.111 852.557 96.0213 853.44 96.9193C853.4 97.9895 853.355 99.0474 853.31 100.118C846.504 97.4482 839.699 94.7788 833.68 92.4292C833.103 96.1566 832.843 99.072 832.634 99.0228C830.19 98.543 827.752 97.5958 825.314 96.7839C825.319 96.0581 825.325 95.3323 825.331 94.6189C826.094 94.1145 826.864 93.6225 827.486 93.2165C827.31 91.4943 827.135 89.7721 826.982 88.259H871.909C871.938 86.9182 871.966 85.5774 872 84.2365C869.239 82.4897 866.473 80.7059 864.804 79.6357ZM361.691 303.879H363.603C362.839 305.65 362.455 305.588 361.691 303.879Z" fill="#F7F7F8"/>
</svg>
