<svg width="34" height="38" viewBox="0 0 34 38" fill="none" xmlns="http://www.w3.org/2000/svg">
<path fill-rule="evenodd" clip-rule="evenodd" d="M17.4036 37.4744C19.92 36.2387 33.3327 29.0701 33.3327 16.6667C33.3327 7.64606 26.02 0.333374 16.9993 0.333374C7.9787 0.333374 0.666016 7.64606 0.666016 16.6667C0.666016 29.0701 14.0787 36.2387 16.5951 37.4744C16.8508 37.6 17.1479 37.6 17.4036 37.4744ZM17 23.6667C20.866 23.6667 24 20.5327 24 16.6667C24 12.8008 20.866 9.66675 17 9.66675C13.134 9.66675 10 12.8008 10 16.6667C10 20.5327 13.134 23.6667 17 23.6667Z" fill="#717884"/>
</svg>
