<svg width="40" height="40" viewBox="0 0 40 40" fill="none" xmlns="http://www.w3.org/2000/svg">
<path d="M4.58579 2.74762L6.01675 1.31666C6.92797 0.405441 8.40536 0.405438 9.31658 1.31666L15.3501 7.35017C16.2613 8.26139 16.2613 9.73877 15.3501 10.65L11.1678 14.8323C10.4704 15.5297 10.2975 16.5951 10.7386 17.4772C13.2883 22.5768 17.4233 26.7117 22.5229 29.2615C23.405 29.7026 24.4704 29.5297 25.1678 28.8323L29.3501 24.65C30.2613 23.7388 31.7387 23.7388 32.6499 24.65L38.6834 30.6835C39.5946 31.5947 39.5946 33.0721 38.6834 33.9833L37.2525 35.4143C32.326 40.3408 24.5266 40.8951 18.953 36.7148L16.1333 34.6001C12.0651 31.5489 8.45117 27.935 5.4 23.8667L3.28528 21.0471C-0.894982 15.4734 -0.340697 7.67411 4.58579 2.74762Z" fill="#717884"/>
</svg>
