<svg width="42" height="34" viewBox="0 0 42 34" fill="none" xmlns="http://www.w3.org/2000/svg">
<path fill-rule="evenodd" clip-rule="evenodd" d="M0 6.66645C0.164604 6.6663 0.331543 6.70686 0.485643 6.79247L21 18.1893L41.5144 6.79247C41.6685 6.70686 41.8354 6.6663 42 6.66645C42 3.83814 42 2.42397 41.1213 1.54531C40.2426 0.666626 38.8284 0.666626 36 0.666626H6C3.17157 0.666626 1.75736 0.666626 0.87868 1.54531C1.81198e-05 2.42397 0 3.83814 0 6.66645ZM42 8.81059L21.9713 19.9376C21.3672 20.2732 20.6328 20.2732 20.0287 19.9377L0 8.81059V27.3333C0 30.1617 0 31.5759 0.87868 32.4546C1.75736 33.3333 3.17157 33.3333 6 33.3333H36C38.8284 33.3333 40.2426 33.3333 41.1213 32.4546C42 31.5759 42 30.1617 42 27.3333V8.81059Z" fill="#717884"/>
</svg>
