<svg width="169" height="169" viewBox="0 0 169 169" fill="none" xmlns="http://www.w3.org/2000/svg">
<path d="M29.8213 121.667L31.2143 120.823L32.0412 122.187L39.4129 117.718L38.586 116.354L39.9791 115.509L42.4421 119.573C43.2631 120.927 43.5472 122.17 43.2943 123.303C43.0473 124.444 42.2321 125.435 40.8487 126.273L38.9477 127.426C37.5643 128.264 36.3093 128.529 35.1826 128.22C34.0714 127.914 33.1054 127.085 32.2843 125.73L29.8213 121.667ZM33.0291 123.751L33.7152 124.883C34.2489 125.763 34.8672 126.281 35.5703 126.437C36.2733 126.593 37.065 126.404 37.9454 125.87L39.9479 124.656C40.8379 124.117 41.3716 123.502 41.5489 122.813C41.7262 122.123 41.548 121.338 41.0143 120.458L40.3282 119.326L33.0291 123.751Z" fill="#3D3D3D"/>
<path d="M41.1544 137.07L49.3878 128.508L54.7819 133.695L53.6292 134.894L49.5561 130.977L47.1919 133.436L50.9225 137.023L49.7698 138.222L46.0393 134.634L43.628 137.142L47.7622 141.117L46.6095 142.316L41.1544 137.07Z" fill="#3D3D3D"/>
<path d="M55.5589 148.283C54.7881 147.831 54.1852 147.293 53.7504 146.671C53.3155 146.049 53.0818 145.374 53.0495 144.646C53.0326 143.915 53.2475 143.169 53.694 142.408L53.9087 142.042L55.4747 142.961L55.26 143.327C54.8364 144.049 54.7333 144.716 54.9508 145.329C55.1781 145.948 55.6527 146.469 56.3747 146.893C57.1065 147.322 57.7466 147.494 58.2948 147.409C58.8488 147.315 59.2689 147.023 59.5551 146.535C59.7441 146.214 59.8108 145.899 59.7554 145.591C59.7 145.283 59.5457 144.976 59.2924 144.67C59.0448 144.354 58.7281 144.011 58.3422 143.64L57.878 143.191C57.3159 142.651 56.8567 142.126 56.5005 141.615C56.1598 141.1 55.9694 140.575 55.9292 140.04C55.889 139.505 56.0436 138.94 56.3928 138.345C56.7477 137.74 57.1975 137.309 57.7421 137.051C58.2965 136.799 58.9058 136.711 59.5701 136.786C60.2344 136.861 60.9227 137.107 61.635 137.525C62.3473 137.943 62.9099 138.437 63.323 139.007C63.7458 139.583 63.9779 140.205 64.0193 140.872C64.0608 141.539 63.8697 142.233 63.4461 142.955L63.1369 143.482L61.5709 142.563L61.88 142.037C62.1377 141.598 62.2539 141.187 62.2288 140.805C62.2135 140.429 62.0821 140.083 61.8345 139.767C61.5869 139.451 61.2485 139.167 60.8192 138.915C60.1947 138.549 59.6296 138.395 59.1237 138.452C58.6334 138.505 58.2537 138.761 57.9846 139.22C57.8014 139.532 57.7228 139.834 57.749 140.124C57.7906 140.411 57.9206 140.704 58.1388 141.002C58.3571 141.301 58.6572 141.628 59.039 141.983L59.5033 142.432C60.0809 142.968 60.5547 143.502 60.9247 144.034C61.3004 144.556 61.5201 145.098 61.5838 145.66C61.6475 146.222 61.499 146.81 61.1383 147.425C60.7777 148.04 60.3067 148.485 59.7254 148.76C59.1538 149.041 58.5078 149.148 57.7873 149.079C57.0725 149.001 56.3297 148.735 55.5589 148.283Z" fill="#3D3D3D"/>
<path d="M66.5345 152.972L69.4256 141.451L71.2032 141.897L68.3121 153.418L66.5345 152.972Z" fill="#3D3D3D"/>
<path d="M90.7424 156.108C89.8951 156.151 89.1289 156.009 88.4437 155.682C87.758 155.343 87.2048 154.828 86.7842 154.136C86.3635 153.444 86.1268 152.584 86.0741 151.556L85.9315 148.776C85.8521 147.228 86.2152 146.026 87.0208 145.169C87.8258 144.301 88.9514 143.83 90.3975 143.755C91.821 143.682 92.9369 144.016 93.7452 144.756C94.5529 145.485 94.99 146.499 95.0567 147.798L95.0611 147.883L93.2477 147.976L93.2408 147.84C93.2159 147.355 93.0975 146.925 92.8857 146.55C92.6734 146.165 92.3693 145.869 91.9736 145.663C91.5779 145.456 91.0806 145.369 90.4818 145.399C89.578 145.446 88.8861 145.759 88.4061 146.338C87.9255 146.907 87.7101 147.677 87.76 148.648L87.9061 151.496C87.9554 152.456 88.2487 153.205 88.7861 153.744C89.3229 154.272 90.0489 154.512 90.964 154.465C91.8678 154.419 92.516 154.136 92.9085 153.618C93.3011 153.099 93.477 152.444 93.4364 151.654L93.4251 151.433L90.2391 151.597L90.1583 150.021L95.1576 149.764L95.4585 155.628L93.7638 155.715L93.702 154.511L93.4309 154.525C93.3402 154.745 93.199 154.973 93.0072 155.21C92.8268 155.446 92.5539 155.647 92.1886 155.813C91.8346 155.978 91.3525 156.076 90.7424 156.108Z" fill="#3D3D3D"/>
<path d="M103.621 153.677L100.123 142.325L103.497 141.286L109.716 150.521L109.975 150.441L106.837 140.256L108.573 139.722L112.07 151.074L108.697 152.113L102.473 142.862L102.213 142.942L105.356 153.142L103.621 153.677Z" fill="#3D3D3D"/>
<path d="M116.881 148.364L110.708 138.216L112.274 137.263L114.84 141.482L115.072 141.341L116.29 134.821L118.334 133.577L116.795 141.366L124.667 143.629L122.564 144.907L116.06 142.965L115.828 143.106L118.447 147.412L116.881 148.364Z" fill="#3D3D3D"/>
<path d="M80.9342 16.2594L81.1046 17.8795L79.5183 18.0463L80.4201 26.6194L82.0065 26.4525L82.1769 28.0726L77.4516 28.5697C75.8765 28.7354 74.6306 28.4626 73.7141 27.7514C72.7862 27.0414 72.2377 25.8819 72.0684 24.2731L71.8359 22.0623C71.6666 20.4534 71.9619 19.2052 72.7217 18.3177C73.4714 17.4425 74.6338 16.9221 76.2089 16.7564L80.9342 16.2594ZM77.6823 18.2736L76.366 18.4121C75.3422 18.5198 74.61 18.8584 74.1694 19.428C73.7288 19.9976 73.5624 20.7943 73.67 21.8182L73.915 24.1471C74.0239 25.1821 74.3525 25.9268 74.9008 26.381C75.4491 26.8352 76.2351 27.0084 77.259 26.9007L78.5753 26.7623L77.6823 18.2736Z" fill="#3D3D3D"/>
<path d="M62.1704 19.9503L66.4082 31.047L59.4172 33.7168L58.8239 32.1633L64.1028 30.1473L62.886 26.961L58.0509 28.8074L57.4577 27.2539L62.2927 25.4074L61.0516 22.1576L55.6935 24.2039L55.1002 22.6503L62.1704 19.9503Z" fill="#3D3D3D"/>
<path d="M45.8876 28.2036C46.6252 27.699 47.3682 27.3826 48.1166 27.2543C48.865 27.1261 49.575 27.2023 50.2468 27.4829C50.9155 27.7792 51.4991 28.2915 51.9973 29.0198L52.2369 29.3699L50.7383 30.3951L50.4988 30.045C50.0261 29.3541 49.4661 28.9764 48.819 28.9121C48.1625 28.8541 47.4888 29.0614 46.7978 29.5341C46.0976 30.0132 45.6691 30.5188 45.5123 31.051C45.3619 31.5925 45.4464 32.0967 45.7658 32.5636C45.9766 32.8717 46.2331 33.0663 46.5353 33.1473C46.8376 33.2284 47.181 33.2196 47.5658 33.1208C47.957 33.0314 48.4024 32.8911 48.9022 32.7L49.5066 32.4715C50.2344 32.1929 50.9051 32.0013 51.5189 31.8966C52.1297 31.8077 52.6857 31.8591 53.1869 32.0507C53.6881 32.2424 54.1336 32.623 54.5232 33.1925C54.9193 33.7714 55.1178 34.362 55.1188 34.9645C55.1104 35.5733 54.9308 36.1623 54.5799 36.7313C54.229 37.3003 53.7128 37.818 53.0312 38.2843C52.3497 38.7506 51.6629 39.0491 50.971 39.1798C50.2698 39.3169 49.6086 39.2621 48.9875 39.0154C48.3664 38.7687 47.8195 38.2999 47.3468 37.609L47.0018 37.1048L48.5004 36.0796L48.8453 36.5837C49.1328 37.0039 49.4546 37.284 49.8109 37.424C50.1578 37.5705 50.5269 37.599 50.918 37.5096C51.3092 37.4202 51.7101 37.2349 52.121 36.9538C52.7185 36.545 53.0991 36.0996 53.2628 35.6175C53.4234 35.1512 53.3537 34.6986 53.0534 34.2598C52.849 33.961 52.6097 33.7615 52.3355 33.6612C52.0584 33.5767 51.7382 33.5696 51.3751 33.6398C51.012 33.7101 50.5884 33.8423 50.1043 34.0364L49.4999 34.2649C48.7692 34.5592 48.0844 34.7604 47.4456 34.8685C46.8132 34.9859 46.2292 34.9537 45.6935 34.7719C45.1579 34.5901 44.6889 34.205 44.2865 33.6168C43.884 33.0286 43.6821 32.4129 43.6806 31.7697C43.6698 31.1328 43.8489 30.5031 44.218 29.8805C44.5934 29.2672 45.15 28.7083 45.8876 28.2036Z" fill="#3D3D3D"/>
<path d="M36.9694 36.1348L46.1606 43.6594L44.9996 45.0775L35.8084 37.5529L36.9694 36.1348Z" fill="#3D3D3D"/>
<path d="M23.8191 56.6996C24.1408 55.9145 24.5957 55.2818 25.1838 54.8014C25.7823 54.3254 26.4842 54.0445 27.2895 53.9588C28.0948 53.8731 28.9738 54.0254 29.9264 54.4158L32.5016 55.4709C33.9357 56.0586 34.8687 56.8994 35.3007 57.9933C35.7432 59.0916 35.6899 60.3106 35.1409 61.6505C34.6004 62.9695 33.8232 63.8369 32.8092 64.2528C31.8057 64.6729 30.7021 64.6364 29.4982 64.1431L29.4197 64.1109L30.1082 62.4308L30.2338 62.4823C30.6839 62.6667 31.1234 62.7429 31.5522 62.7108C31.9915 62.6829 32.3888 62.534 32.744 62.2638C33.0992 61.9937 33.3904 61.5812 33.6178 61.0264C33.9609 60.189 33.9725 59.4296 33.6526 58.7484C33.3432 58.0714 32.7383 57.5485 31.8381 57.1796L29.2001 56.0987C28.3103 55.7341 27.5072 55.6801 26.7908 55.9367C26.0848 56.1976 25.5582 56.752 25.2107 57.5999C24.8676 58.4374 24.8469 59.1441 25.1488 59.7202C25.4507 60.2962 25.968 60.7344 26.7008 61.0346L26.9049 61.1183L28.1145 58.1663L29.5748 58.7646L27.6768 63.3968L22.2439 61.1706L22.8873 59.6004L24.0021 60.0572L24.1051 59.8059C23.9448 59.6302 23.7985 59.4053 23.6664 59.1311C23.5299 58.8673 23.4645 58.5348 23.4699 58.1336C23.4711 57.7429 23.5875 57.2649 23.8191 56.6996Z" fill="#3D3D3D"/>
<path d="M20.5321 69.386L32.2921 71.0586L31.7951 74.553L20.7907 76.2444L20.7524 76.5132L31.3029 78.0138L31.0472 79.8114L19.2872 78.1388L19.7842 74.6444L30.8054 72.9553L30.8437 72.6865L20.2764 71.1836L20.5321 69.386Z" fill="#3D3D3D"/>
<path d="M19.6884 83.646L31.4998 82.3854L31.6943 84.2077L26.7841 84.7318L26.8129 85.0018L32.1931 88.8816L32.447 91.2608L26.0566 86.5501L20.6555 92.707L20.3944 90.2604L24.9231 85.2035L24.8943 84.9335L19.8829 85.4684L19.6884 83.646Z" fill="#3D3D3D"/>
<path d="M145.828 117.34L144.443 116.483L145.282 115.126L137.952 110.59L137.113 111.946L135.728 111.089L138.228 107.048C139.062 105.702 140.04 104.884 141.164 104.595C142.294 104.296 143.546 104.572 144.922 105.424L146.812 106.594C148.187 107.445 148.993 108.443 149.23 109.587C149.463 110.716 149.162 111.953 148.329 113.3L145.828 117.34ZM146.227 113.536L146.924 112.41C147.465 111.535 147.646 110.749 147.465 110.052C147.285 109.355 146.757 108.735 145.882 108.193L143.89 106.961C143.005 106.413 142.216 106.217 141.521 106.372C140.826 106.527 140.208 107.043 139.666 107.918L138.969 109.044L146.227 113.536Z" fill="#3D3D3D"/>
<path d="M154.4 100.245L143.032 96.8003L145.203 89.6385L146.794 90.1208L145.155 95.5287L148.419 96.5179L149.92 91.5647L151.512 92.047L150.011 97.0002L153.34 98.0091L155.004 92.52L156.595 93.0023L154.4 100.245Z" fill="#3D3D3D"/>
<path d="M157.845 82.3194C157.792 83.2116 157.587 83.9927 157.231 84.6629C156.874 85.3331 156.379 85.8478 155.745 86.2071C155.102 86.5543 154.339 86.702 153.458 86.6499L153.035 86.6249L153.142 84.8123L153.566 84.8374C154.401 84.8867 155.043 84.6753 155.49 84.2031C155.938 83.7196 156.186 83.06 156.236 82.2243C156.286 81.3774 156.148 80.7289 155.824 80.2791C155.488 79.8286 155.037 79.5867 154.473 79.5533C154.1 79.5313 153.789 79.6149 153.54 79.8042C153.291 79.9935 153.087 80.2704 152.93 80.6351C152.761 80.9991 152.599 81.4372 152.444 81.9493L152.255 82.5671C152.029 83.313 151.77 83.9607 151.477 84.51C151.173 85.0473 150.792 85.4554 150.334 85.7343C149.875 86.0132 149.302 86.1323 148.613 86.0916C147.913 86.0502 147.324 85.8455 146.847 85.4773C146.371 85.0979 146.015 84.5952 145.78 83.9694C145.545 83.3436 145.452 82.6184 145.501 81.794C145.55 80.9696 145.734 80.2439 146.055 79.6169C146.376 78.9786 146.824 78.4894 147.399 78.1495C147.975 77.8095 148.68 77.6642 149.516 77.7136L150.126 77.7496L150.018 79.5621L149.409 79.5261C148.9 79.4961 148.482 79.579 148.153 79.7749C147.825 79.9595 147.576 80.2338 147.407 80.5978C147.239 80.9618 147.14 81.3922 147.11 81.8891C147.067 82.6119 147.187 83.1855 147.467 83.6101C147.738 84.0227 148.138 84.2447 148.669 84.2761C149.03 84.2974 149.335 84.2304 149.582 84.075C149.818 83.9077 150.02 83.6589 150.187 83.3288C150.354 82.9987 150.509 82.5829 150.652 82.0814L150.841 81.4636C151.056 80.7057 151.316 80.0411 151.622 79.4699C151.916 78.898 152.299 78.456 152.771 78.1439C153.243 77.8318 153.834 77.6968 154.546 77.7388C155.257 77.7808 155.868 77.9982 156.377 78.391C156.887 78.7724 157.275 79.2996 157.542 79.9727C157.797 80.645 157.898 81.4273 157.845 82.3194Z" fill="#3D3D3D"/>
<path d="M157.036 70.412L145.459 73.0707L145.048 71.2845L156.625 68.6259L157.036 70.412Z" fill="#3D3D3D"/>
<path d="M148.831 47.4219C149.255 48.157 149.476 48.9041 149.496 49.6631C149.506 50.4278 149.298 51.1548 148.873 51.8439C148.447 52.533 147.789 53.1347 146.897 53.6487L144.486 55.0384C143.143 55.8124 141.907 56.0352 140.777 55.7068C139.638 55.3841 138.707 54.5955 137.984 53.3409C137.272 52.1059 137.062 50.9603 137.354 49.904C137.637 48.8534 138.342 48.0032 139.469 47.3536L139.542 47.3112L140.449 48.8843L140.331 48.9521C139.91 49.195 139.58 49.4958 139.343 49.8545C139.096 50.2189 138.971 50.6242 138.967 51.0704C138.963 51.5166 139.111 51.9995 139.41 52.5189C139.862 53.303 140.455 53.7772 141.19 53.9415C141.914 54.1114 142.698 53.9534 143.541 53.4676L146.011 52.044C146.844 51.5638 147.379 50.9619 147.614 50.2384C147.84 49.5206 147.725 48.7647 147.267 47.9708C146.815 47.1867 146.269 46.7376 145.629 46.6235C144.988 46.5094 144.325 46.6501 143.639 47.0455L143.448 47.1557L145.041 49.9196L143.674 50.7077L141.174 46.3706L146.261 43.4387L147.108 44.9089L146.065 45.5105L146.2 45.7458C146.437 45.7266 146.705 45.7488 147.002 45.8122C147.294 45.8659 147.597 46.0177 147.911 46.2677C148.219 46.5079 148.526 46.8926 148.831 47.4219Z" fill="#3D3D3D"/>
<path d="M140.815 37.0539L132.291 45.3269L129.833 42.7941L135.234 33.0585L135.045 32.8636L127.398 40.2857L126.133 38.9828L134.657 30.7098L137.115 33.2425L131.702 42.99L131.891 43.1849L139.55 35.751L140.815 37.0539Z" fill="#3D3D3D"/>
<path d="M130.058 27.6545L123.822 37.7642L122.262 36.8021L124.855 32.5993L124.624 32.4568L118.262 34.3343L116.225 33.0782L123.863 30.9107L122.303 22.8704L124.397 24.1622L125.621 30.8392L125.852 30.9818L128.498 26.6923L130.058 27.6545Z" fill="#3D3D3D"/>
<circle r="2.91683" transform="matrix(-0.954473 -0.298296 -0.298296 0.954473 106.469 25.3733)" fill="white"/>
<circle r="2.91683" transform="matrix(-1 0 0 1 28.3957 106.663)" fill="white"/>
<circle r="2.91683" transform="matrix(-1 0 0 1 134.861 132.914)" fill="white"/>
</svg>
