<svg width="335" height="165" viewBox="0 0 335 165" fill="none" xmlns="http://www.w3.org/2000/svg">
<path d="M321.626 97.4087C321.283 94.0306 320.014 91.2526 318.599 89.1091C312.263 80.5866 301.229 76.0338 301.229 76.0338C301.229 76.0338 295.93 59.6747 294.524 53.853C293.118 48.0399 288.856 45.9907 288.856 45.9907V42.724L286.824 42.0467L286.816 37.1509L239.77 4.00404L187.195 3.31812L168.864 0.728785L162.631 0L27.0935 29.7516L24.6328 111.573L35.0673 113.871L34.0127 122.951L35.7961 133.848L52.6697 135.237L50.4576 118.226L138.041 125.608L136.574 134.517L126.174 143.339L239.779 161.156L260.914 148.758L292.775 144.625L312.332 147.241L326.968 141.899C326.968 141.899 327.062 138.221 327.602 120.318C327.851 111.924 327.585 107.835 326.685 104.731C325.982 102.845 324.55 100.281 321.626 97.4087Z" fill="white"/>
<path d="M332.867 153.465L317.099 152.11C317.931 150.438 318.668 148.286 319.26 145.894L321.609 145.783C321.609 145.783 326.899 145.774 326.968 141.933C326.968 141.933 324.327 142.19 313.104 143.245C301.88 144.299 249.279 145.345 249.279 145.345H238.467L238.33 145.337V145.345H238.227C238.227 145.345 237.413 131.327 234.129 123.199L274.281 126.371L272.952 124.39L267.044 123.645C267.13 121.158 266.581 112.901 256.293 105.554C244.015 96.7824 226.481 94.8618 217.718 95.5563C208.956 96.2593 207.292 97.1339 207.292 97.1339C208.124 96.6966 210.859 97.3654 211.845 97.4511C219.09 98.1028 227.304 99.123 233.323 103.556C238.382 107.277 240.577 113.707 240.285 119.863C240.285 119.881 240.294 120.061 240.285 120.258L231.848 119.195C231.848 119.195 231.042 114.659 219.648 113.596C208.253 112.533 175.252 111.572 175.252 111.572L174.454 71.5492C174.454 71.5492 174.591 36.6704 178.252 20.9629C181.245 8.1191 184.16 5.76984 199.499 4.06362C199.67 4.14078 199.85 4.20938 200.022 4.28654L232.414 5.83843L204.566 7.16739C204.84 7.39031 205.098 7.62181 205.355 7.85331L239.659 9.26801L207.961 10.5712C208.158 10.8113 208.356 11.06 208.553 11.3086L246.09 12.6976L210.439 14.018C210.593 14.2581 210.739 14.5067 210.885 14.7553L249.665 16.1357L212.351 17.4647C212.471 17.7048 212.583 17.9449 212.703 18.1849L252.426 19.5653L213.886 20.9114C213.98 21.1429 214.066 21.3744 214.16 21.6059L253.961 23.0035L215.12 24.3667C215.189 24.5897 215.258 24.804 215.326 25.0184L255.487 26.4331L216.124 27.822C216.175 28.0278 216.227 28.225 216.278 28.4222L256.618 29.8626L216.921 31.2859C216.955 31.466 216.99 31.646 217.024 31.8175L257.733 33.2922L217.521 34.7498C217.744 36.2674 217.813 37.1762 217.813 37.1762H286.799C283.961 29.9398 275.49 16.6588 263.683 9.04508C253.197 2.28023 251.551 3.34341 211.699 2.90614L168.838 0.762648L167.561 116.785V117.043L220.608 122.033C220.359 122.933 220.136 124.005 219.922 125.231L169.207 121.39L219.493 128.266C218.987 132.673 218.722 138.675 218.833 146.717C164.174 141.17 164.174 141.17 164.174 141.17C164.174 141.17 165.374 125.882 161.765 117.943L42.2782 105.948L164.448 115.131L163.18 0.49685L163.008 0.488281L0 33.5237L24.5815 30.1456L24.8301 82.5067L27.0765 29.8026L157.066 11.9517L158.378 103.461L141.53 103.076L1.70621 103.221L137.698 118.989L137.355 122.238L7.57079 108.692L35.0674 113.879C34.4244 116.16 34.0129 119.375 34.0129 122.959C34.0129 125.445 34.2101 127.76 34.5444 129.715L22.3523 130.126C20.1488 130.204 19.9602 133.402 22.138 133.736L44.6188 137.209C44.7046 137.234 44.7903 137.243 44.876 137.251L220.222 164.319C220.351 164.337 220.488 164.345 220.616 164.337L332.781 157.074C334.984 156.937 335.062 153.713 332.867 153.465ZM243.269 110.364C244.083 107.097 252.794 109.823 259.182 113.356C264.206 116.134 265.364 121.347 265.63 123.447L243.646 120.669C242.994 118.432 242.626 112.936 243.269 110.364ZM289.362 147.343C289.594 148.2 289.843 149.006 290.108 149.778L271.76 148.2L289.362 147.343ZM228.247 126.363C231.677 126.363 234.463 132.784 234.463 140.707C234.463 148.629 231.677 155.051 228.247 155.051C224.818 155.051 222.031 148.629 222.031 140.707C222.031 132.784 224.818 126.363 228.247 126.363ZM155.754 122.719C157.967 122.719 159.75 127.906 159.75 134.311C159.75 140.707 157.958 145.903 155.754 145.903C153.551 145.903 151.759 140.715 151.759 134.311C151.759 127.906 153.551 122.719 155.754 122.719ZM141.822 122.307C143.871 122.307 145.534 127.134 145.534 133.084C145.534 139.035 143.871 143.862 141.822 143.862C139.773 143.862 138.109 139.035 138.109 133.084C138.109 127.134 139.773 122.307 141.822 122.307ZM45.6477 116.468C46.9938 116.468 48.0913 120.104 48.0913 124.588C48.0913 129.072 47.0024 132.707 45.6477 132.707C44.3016 132.707 43.2042 129.072 43.2042 124.588C43.2127 120.104 44.3016 116.468 45.6477 116.468ZM37.1424 116.177C38.3942 116.177 39.4144 119.555 39.4144 123.722C39.4144 127.889 38.4027 131.267 37.1424 131.267C35.8906 131.267 34.8788 127.889 34.8788 123.722C34.8788 119.555 35.8906 116.177 37.1424 116.177ZM104.328 127.357L64.8705 128.695C65.0334 127.237 65.1192 125.617 65.1192 123.867C65.1192 123.447 65.1106 123.036 65.102 122.633L135.846 128.789C135.786 129.483 135.743 130.204 135.709 130.932L104.594 127.374C104.508 127.357 104.422 127.349 104.328 127.357Z" fill="#1D191A"/>
<path d="M302.866 111.718L284.672 112.507C284.724 112.85 284.775 113.193 284.818 113.545L302.746 113.922L302.866 111.718Z" fill="#1D191A"/>
<path d="M302.695 114.934L285.118 115.697C285.169 116.048 285.212 116.4 285.255 116.751L302.583 117.111L302.695 114.934Z" fill="#1D191A"/>
<path d="M303.029 108.503L284.192 109.318C284.244 109.652 284.295 109.995 284.347 110.338L302.918 110.733L303.029 108.503Z" fill="#1D191A"/>
<path d="M303.535 98.8574L282.546 99.7663C282.606 100.075 282.666 100.392 282.726 100.709L303.424 101.147L303.535 98.8574Z" fill="#1D191A"/>
<path d="M302.361 121.363L285.907 122.083C285.95 122.443 285.984 122.803 286.027 123.172L302.249 123.506L302.361 121.363Z" fill="#1D191A"/>
<path d="M303.364 102.073L283.121 102.947C283.181 103.265 283.232 103.59 283.292 103.916L303.244 104.336L303.364 102.073Z" fill="#1D191A"/>
<path d="M303.201 105.288L283.678 106.136C283.73 106.462 283.79 106.797 283.841 107.131L303.081 107.534L303.201 105.288Z" fill="#1D191A"/>
<path d="M280.206 110.254C280.163 109.997 280.129 109.748 280.086 109.5L268.494 110.005C268.494 110.005 268.494 110.005 268.494 110.014L280.206 110.254Z" fill="#1D191A"/>
<path d="M281.535 119.873C281.5 119.598 281.466 119.333 281.432 119.067L270.131 119.556C270.14 119.581 270.14 119.607 270.148 119.633L281.535 119.873Z" fill="#1D191A"/>
<path d="M315.796 111.153L306.956 111.539L306.828 114.008L315.685 114.197C315.727 113.151 315.762 112.13 315.796 111.153Z" fill="#1D191A"/>
<path d="M281.131 116.666C281.097 116.4 281.062 116.135 281.028 115.877L269.591 116.375C269.591 116.392 269.599 116.409 269.599 116.426L281.131 116.666Z" fill="#1D191A"/>
<path d="M303.698 95.6953L301.863 95.721L281.92 96.5784C281.98 96.8699 282.04 97.1786 282.1 97.4958L303.578 97.9503L303.698 95.6953Z" fill="#1D191A"/>
<path d="M301.486 138.342L301.82 131.894C297.002 132.006 291.566 132.134 286.816 132.237C286.979 134.38 287.116 136.567 287.228 138.779C291.797 138.65 297.276 138.479 301.486 138.342Z" fill="#1D191A"/>
<path d="M302.524 118.148L285.521 118.885C285.564 119.237 285.607 119.597 285.65 119.957L302.404 120.309L302.524 118.148Z" fill="#1D191A"/>
<path d="M273.578 135.365C274.607 136.977 276.416 138.949 279.116 138.949C279.922 138.949 281.346 138.923 283.155 138.881C283.043 136.668 282.906 134.474 282.735 132.33C278.079 132.433 274.709 132.51 274.349 132.51C273.115 132.51 272.386 132.51 273.578 135.365Z" fill="#1D191A"/>
<path d="M315.676 114.367L306.785 114.753L306.656 117.197L315.539 117.385C315.59 116.373 315.633 115.362 315.676 114.367Z" fill="#1D191A"/>
<path d="M268.159 97.177C268.151 97.1855 268.142 97.1941 268.134 97.2027L277.934 97.4085C277.891 97.1855 277.848 96.9712 277.805 96.7568L268.159 97.177Z" fill="#1D191A"/>
<path d="M278.559 100.614C278.517 100.383 278.474 100.16 278.431 99.937L267.936 100.391L278.559 100.614Z" fill="#1D191A"/>
<path d="M279.571 106.309L268.262 106.798L279.691 107.038C279.648 106.798 279.614 106.549 279.571 106.309Z" fill="#1D191A"/>
<path d="M315.376 120.789L306.451 121.175L306.322 123.576L315.205 123.764C315.273 122.813 315.325 121.809 315.376 120.789Z" fill="#1D191A"/>
<path d="M315.908 107.937L307.119 108.314L306.991 110.801L315.796 110.989C315.848 109.918 315.882 108.889 315.908 107.937Z" fill="#1D191A"/>
<path d="M305.584 138.16C306.056 138.134 306.51 138.109 306.939 138.083C308.122 138.006 309.134 137.834 310 137.594C311.501 136.9 313.524 135.296 314.416 131.61C314.381 131.601 314.347 131.601 314.304 131.601C312.907 131.635 309.803 131.704 305.91 131.798L305.584 138.16Z" fill="#1D191A"/>
<path d="M281.912 123.08C281.877 122.806 281.852 122.532 281.817 122.257L270.688 122.746C270.697 122.78 270.697 122.815 270.705 122.849L281.912 123.08Z" fill="#1D191A"/>
<path d="M280.685 113.458C280.651 113.201 280.608 112.944 280.574 112.687L269.042 113.184C269.042 113.192 269.042 113.201 269.051 113.21L280.685 113.458Z" fill="#1D191A"/>
<path d="M316.079 102.227C316.088 101.978 316.079 101.747 316.079 101.524L307.462 101.893L307.325 104.422L316.011 104.602C316.053 103.119 316.079 102.227 316.079 102.227Z" fill="#1D191A"/>
<path d="M315.642 98.3257L307.625 98.6686L307.488 101.224L316.071 101.404C316.053 100.143 315.882 99.1316 315.642 98.3257Z" fill="#1D191A"/>
<path d="M279.014 103.127L268.099 103.599L279.142 103.83C279.1 103.59 279.057 103.358 279.014 103.127Z" fill="#1D191A"/>
<path d="M316.011 104.73L307.291 105.108L307.163 107.62L315.917 107.8C315.951 106.625 315.985 105.588 316.011 104.73Z" fill="#1D191A"/>
<path d="M313.944 95.5576L307.796 95.6348L307.667 98.0355L315.607 98.207C314.972 96.2007 313.944 95.5576 313.944 95.5576Z" fill="#1D191A"/>
<path d="M315.539 117.583L306.622 117.968L306.493 120.395L315.393 120.583C315.444 119.589 315.487 118.586 315.539 117.583Z" fill="#1D191A"/>
<path d="M260.674 47.0718L266.89 75.8545C282.778 75.7345 298.228 75.6831 298.228 75.6831L291.215 49.7811C289.731 48.8552 287.931 47.972 286.164 47.7062C284.304 47.4233 272.883 47.2175 260.674 47.0718Z" fill="#1D191A"/>
<path d="M258.291 47.0446C243.492 46.8817 228.393 46.8131 228.393 46.8131C228.393 46.8131 220.745 46.6845 222.014 54.4611C223.292 62.2377 225.204 72.9551 225.204 72.9551C225.204 72.9551 226.987 76.8305 233.366 76.359C236.316 76.1446 250.394 75.9817 264.687 75.8703L258.291 47.0446Z" fill="#1D191A"/>
<path d="M214.992 53.2172C214.992 53.2172 213.106 53.08 210.405 53.2172C207.704 53.3544 207.301 56.724 207.301 56.724C207.301 56.724 207.301 72.6458 207.301 76.3841C207.301 80.1223 209.325 80.0708 209.325 80.0708C209.325 80.0708 212.026 80.8768 216.475 81.014C220.934 81.1512 220.66 78.4504 220.257 71.7027C219.854 64.955 217.83 55.9094 217.83 55.9094C217.273 53.2772 214.992 53.2172 214.992 53.2172Z" fill="#1D191A"/>
<path d="M189.768 89.3763C191.26 88.7418 192.263 87.6015 192.263 86.3068V56.2551C192.263 54.2573 189.896 52.9027 187.024 53.2199L185.421 53.3999C183.106 53.6572 181.177 54.9347 180.585 56.4608C181.305 56.1007 182.137 55.8521 183.029 55.7578L184.632 55.5777C187.504 55.2605 189.871 56.6152 189.871 58.6129V88.6646C189.871 88.9047 189.836 89.1448 189.768 89.3763Z" fill="#1D191A"/>
<path d="M200.562 37.324L202.783 37.1611C202.783 37.1611 201.797 23.0569 194.689 17.2267C191.971 15.006 190.333 15.932 189.339 17.9211C190.213 17.7154 191.302 18.0412 192.657 19.1558C198.23 23.7257 200.039 33.3543 200.562 37.324Z" fill="#1D191A"/>
<path d="M249.297 110.656C250.36 111.565 251.054 112.988 251.054 114.591C251.054 117.335 249.039 119.564 246.562 119.564C246.339 119.564 246.116 119.538 245.901 119.504C246.656 120.147 247.608 120.542 248.636 120.542C251.114 120.542 253.129 118.312 253.129 115.569C253.129 113.074 251.466 111.007 249.297 110.656Z" fill="#1D191A"/>
<path d="M257.656 113.365C257.793 113.485 257.931 113.605 258.059 113.751C259.56 115.406 259.56 118.098 258.059 119.753C257.125 120.782 255.839 121.176 254.63 120.919C255.273 121.45 256.061 121.776 256.927 121.776C259.045 121.776 260.76 119.873 260.76 117.532C260.777 115.457 259.431 113.742 257.656 113.365Z" fill="#1D191A"/>
<path d="M325.227 117.471C324.644 118.406 323.787 118.792 322.946 118.629C323.409 119.066 323.975 119.315 324.558 119.28C326.007 119.194 327.079 117.471 326.959 115.439C326.856 113.639 325.844 112.198 324.618 111.941C324.721 112.035 324.824 112.138 324.918 112.258C326.024 113.639 326.17 115.971 325.227 117.471Z" fill="#1D191A"/>
<path d="M324.43 124.374C330.535 122.136 327.602 120.335 327.602 120.335L319.972 122.77C319.963 122.462 319.946 121.896 319.929 121.193C321.018 121.116 321.824 119.812 321.738 118.269C321.669 117.163 321.155 116.237 320.469 115.825C321.343 113.45 323.213 109.661 324.43 107.269C324.43 107.269 323.856 106.085 322.664 104.611C322.038 103.83 321.241 102.973 320.272 102.15C320.015 101.91 319.749 101.661 319.483 101.421C319.474 101.318 319.466 101.224 319.457 101.121C319.457 101.284 319.449 101.378 319.449 101.387C319.431 101.378 319.423 101.361 319.406 101.353C319.311 104.799 319.003 115.131 318.514 123.533C318.454 124.588 318.385 125.617 318.325 126.586C319.869 126.037 321.909 125.3 324.43 124.374ZM319.989 117.575C320.006 117.249 320.152 116.743 320.366 116.126C321.035 117.189 321.078 118.775 320.426 119.829C320.28 120.061 320.109 120.232 319.929 120.37C319.92 119.444 319.937 118.432 319.989 117.575Z" fill="#1D191A"/>
<path d="M286.825 42.0548V38.7881L230.451 40.4171L286.825 42.0548Z" fill="#1D191A"/>
<path d="M288.857 46.0011V42.7344L230.451 44.372L288.857 46.0011Z" fill="#1D191A"/>
<path d="M46.7276 130.504C47.1992 129.021 47.4992 126.92 47.4992 124.579C47.4992 122.127 47.1734 119.932 46.659 118.44C45.8702 119.023 45.27 121.493 45.27 124.451C45.27 127.495 45.9045 130.024 46.7276 130.504Z" fill="#1D191A"/>
<path d="M157.53 142.756C158.31 140.638 158.799 137.637 158.799 134.302C158.799 130.803 158.258 127.665 157.418 125.539C156.123 126.371 155.146 129.895 155.146 134.113C155.137 138.469 156.175 142.07 157.53 142.756Z" fill="#1D191A"/>
<path d="M143.467 140.939C144.187 138.976 144.642 136.181 144.642 133.077C144.642 129.819 144.145 126.904 143.356 124.932C142.147 125.703 141.247 128.979 141.247 132.905C141.247 136.952 142.207 140.305 143.467 140.939Z" fill="#1D191A"/>
<path d="M231.008 151.167C232.217 148.552 232.972 144.831 232.972 140.707C232.972 136.377 232.14 132.493 230.82 129.861C228.805 130.89 227.287 135.245 227.287 140.475C227.296 145.851 228.899 150.318 231.008 151.167Z" fill="#1D191A"/>
<path d="M38.154 129.236C38.5999 127.856 38.8742 125.901 38.8742 123.732C38.8742 121.451 38.5656 119.41 38.0854 118.021C37.348 118.562 36.7993 120.859 36.7993 123.603C36.7993 126.433 37.3824 128.782 38.154 129.236Z" fill="#1D191A"/>
<path d="M242.575 78.6748L275.327 79.8237L239.882 81.0669L241.657 81.8472L281.758 83.2619L247.642 84.4622L249.794 85.4053L285.736 86.6914L255.221 87.7803L257.673 88.8521L292.569 90.121L263.023 91.1928L268.725 93.6878C268.725 93.6878 277.496 92.4789 288.977 92.0502C298.683 91.6901 317.905 92.376 317.905 92.376C317.905 92.376 308.174 78.6148 296.856 77.7917C288.248 77.1572 257.073 78.1604 242.575 78.6748Z" fill="#1D191A"/>
<path d="M152.737 84.8062L152.557 80.5278L79.9443 85.7751L152.737 84.8062Z" fill="#1D191A"/>
<path d="M152.9 98.754L152.789 94.4756L79.627 98.4711L152.9 98.754Z" fill="#1D191A"/>
<path d="M152.659 77.8355L152.436 73.5571L80.0972 79.4217L152.659 77.8355Z" fill="#1D191A"/>
<path d="M152.813 91.7836L152.667 87.4966L79.7803 92.1179L152.813 91.7836Z" fill="#1D191A"/>
<path d="M152.257 42.9458L151.845 38.6846L80.8784 47.6701L152.257 42.9458Z" fill="#1D191A"/>
<path d="M151.492 17.7642L81.3403 28.6188L152.024 22.0254L151.492 17.7642Z" fill="#1D191A"/>
<path d="M152.582 70.8555L152.316 66.5771L80.252 73.0762L152.582 70.8555Z" fill="#1D191A"/>
<path d="M152.103 28.9959L151.614 24.7432L81.1875 34.9719L152.103 28.9959Z" fill="#1D191A"/>
<path d="M152.18 35.9751L151.734 31.7139L81.0332 41.3167L152.18 35.9751Z" fill="#1D191A"/>
<path d="M152.496 63.8763L152.196 59.6064L80.4062 66.7228L152.496 63.8763Z" fill="#1D191A"/>
<path d="M152.342 49.9258L151.965 45.6646L80.7241 54.0242L152.342 49.9258Z" fill="#1D191A"/>
<path d="M152.419 56.9051L152.085 52.6353L80.561 60.369L152.419 56.9051Z" fill="#1D191A"/>
</svg>
