<svg width="86" height="86" viewBox="0 0 86 86" fill="none" xmlns="http://www.w3.org/2000/svg">
<circle cx="43" cy="43" r="43" fill="#E54530"/>
<g clip-path="url(#clip0_262_1575)">
<path d="M43 30.1095C39.7691 30.1095 37.1406 32.738 37.1406 35.9689C37.1406 39.1998 39.7691 41.8282 43 41.8282C46.2309 41.8282 48.8594 39.1998 48.8594 35.9689C48.8594 32.738 46.2309 30.1095 43 30.1095ZM43 39.4845C41.0615 39.4845 39.4844 37.9073 39.4844 35.9689C39.4844 34.0304 41.0615 32.4532 43 32.4532C44.9385 32.4532 46.5156 34.0304 46.5156 35.9689C46.5156 37.9073 44.9385 39.4845 43 39.4845Z" fill="white"/>
<path d="M58.3125 46.5156C57.4412 46.5156 56.6252 46.7555 55.9254 47.1711L52.9509 44.2479L54.601 42.5978L52.5166 40.5137C52.6774 40.178 52.8203 39.8347 52.9445 39.4844H55.8906V32.4531H52.9442C52.8203 32.1031 52.6774 31.7595 52.5166 31.4238L54.601 29.3397L49.629 24.3678L47.5447 26.4521C47.2093 26.2913 46.866 26.1485 46.5156 26.0243V23H39.4844V26.0243C39.134 26.1485 38.7907 26.2913 38.455 26.4521L36.3707 24.3678L31.399 29.3397L33.4831 31.4238C33.3226 31.7595 33.1797 32.1028 33.0555 32.4531H30.1094V39.4844H33.0558C33.1797 39.8344 33.3226 40.178 33.4834 40.5137L31.399 42.5978L33.0491 44.2479L30.0746 47.1711C29.3748 46.7555 28.5588 46.5156 27.6875 46.5156C25.1027 46.5156 23 48.6183 23 51.2031C23 53.788 25.1027 55.8906 27.6875 55.8906C30.2723 55.8906 32.375 53.788 32.375 51.2031C32.375 50.3383 32.1388 49.528 31.7286 48.8319L34.7065 45.9053L36.371 47.5697L38.4553 45.4854C38.7907 45.6462 39.134 45.789 39.4844 45.9129V48.8594H41.8281V53.7733C39.8088 54.2949 38.3125 56.1323 38.3125 58.3125C38.3125 60.8973 40.4155 63 43 63C45.5848 63 47.6875 60.8973 47.6875 58.3125C47.6875 56.1323 46.1915 54.2949 44.1719 53.7733V48.8594H46.5156V45.9132C46.866 45.789 47.2093 45.6462 47.545 45.4854L49.6293 47.5697L51.2938 45.9053L54.2717 48.8319C53.8612 49.528 53.625 50.3383 53.625 51.2031C53.625 53.788 55.7277 55.8906 58.3125 55.8906C60.8973 55.8906 63 53.788 63 51.2031C63 48.6183 60.8973 46.5156 58.3125 46.5156V46.5156ZM27.6875 53.5469C26.3951 53.5469 25.3438 52.4955 25.3438 51.2031C25.3438 49.9107 26.3951 48.8594 27.6875 48.8594C28.9799 48.8594 30.0312 49.9107 30.0312 51.2031C30.0312 52.4955 28.9799 53.5469 27.6875 53.5469ZM45.3438 58.3125C45.3438 59.6049 44.2924 60.6562 43 60.6562C41.7076 60.6562 40.6562 59.6049 40.6562 58.3125C40.6562 57.0201 41.7076 55.9688 43 55.9688C44.2924 55.9688 45.3438 57.0201 45.3438 58.3125ZM47.9457 42.5715C46.1143 43.6552 46.0057 43.6659 44.1719 44.1395V46.5156H41.8281V44.1395C39.7566 43.6042 39.683 43.5353 38.0543 42.5715L36.371 44.2552L34.7136 42.5978L36.3972 40.9144C35.3032 39.0654 35.3004 38.9647 34.8292 37.1406H32.4531V34.7969H34.8292C35.3584 32.7491 35.4222 32.671 36.3972 31.0231L34.7136 29.3397L36.371 27.6823L38.0543 29.366C39.8857 28.2823 39.9943 28.2716 41.8281 27.798V25.3438H44.1719V27.798C46.2434 28.3333 46.317 28.4022 47.9457 29.366L49.629 27.6823L51.2864 29.3397L49.6028 31.0231C50.6965 32.8718 50.6999 32.9741 51.1708 34.7969H53.5469V37.1406H51.1708C50.6358 39.2115 50.5671 39.2848 49.6028 40.9144L51.2864 42.5978L49.629 44.2552L47.9457 42.5715ZM58.3125 53.5469C57.0201 53.5469 55.9688 52.4955 55.9688 51.2031C55.9688 49.9107 57.0201 48.8594 58.3125 48.8594C59.6049 48.8594 60.6562 49.9107 60.6562 51.2031C60.6562 52.4955 59.6049 53.5469 58.3125 53.5469Z" fill="white"/>
</g>
<defs>
<clipPath id="clip0_262_1575">
<rect width="40" height="40" fill="white" transform="translate(23 23)"/>
</clipPath>
</defs>
</svg>
