<svg width="86" height="86" viewBox="0 0 86 86" fill="none" xmlns="http://www.w3.org/2000/svg">
<circle cx="43" cy="43" r="43" fill="#E54530"/>
<g clip-path="url(#clip0_262_1577)">
<path d="M53.762 47.2155C50.931 47.2155 48.6279 49.5185 48.6279 52.3495C48.6279 55.1805 50.931 57.4835 53.762 57.4835C56.5934 57.4835 58.896 55.1805 58.896 52.3495C58.896 49.5185 56.5929 47.2155 53.762 47.2155ZM53.762 54.9165C52.3463 54.9165 51.195 53.7652 51.195 52.3495C51.195 50.9338 52.3463 49.7825 53.762 49.7825C55.1777 49.7825 56.329 50.9338 56.329 52.3495C56.329 53.7653 55.1777 54.9165 53.762 54.9165Z" fill="white"/>
<path d="M36.2205 47.2155C33.3895 47.2155 31.0864 49.5185 31.0864 52.3495C31.0864 55.1805 33.3895 57.4835 36.2205 57.4835C39.0514 57.4835 41.3545 55.1805 41.3545 52.3495C41.3545 49.5185 39.0514 47.2155 36.2205 47.2155ZM36.2205 54.9165C34.8048 54.9165 33.6534 53.7652 33.6534 52.3495C33.6534 50.9338 34.8048 49.7825 36.2205 49.7825C37.6358 49.7825 38.7875 50.9338 38.7875 52.3495C38.7875 53.7653 37.6362 54.9165 36.2205 54.9165Z" fill="white"/>
<path d="M57.2189 32.5203C57.0007 32.0869 56.557 31.8135 56.0718 31.8135H49.312V34.3805H55.2803L58.7753 41.332L61.0694 40.1785L57.2189 32.5203Z" fill="white"/>
<path d="M49.9106 51.1089H40.1987V53.6759H49.9106V51.1089Z" fill="white"/>
<path d="M32.3696 51.1089H27.9202C27.2112 51.1089 26.6367 51.6835 26.6367 52.3924C26.6367 53.1013 27.2113 53.6758 27.9202 53.6758H32.3697C33.0787 53.6758 33.6532 53.1012 33.6532 52.3924C33.6532 51.6834 33.0786 51.1089 32.3696 51.1089Z" fill="white"/>
<path d="M63.4605 43.2622L60.9359 40.0107C60.6934 39.6975 60.319 39.5144 59.9224 39.5144H50.5955V30.5298C50.5955 29.8209 50.0209 29.2463 49.312 29.2463H27.9202C27.2112 29.2463 26.6367 29.8209 26.6367 30.5298C26.6367 31.2387 27.2113 31.8133 27.9202 31.8133H48.0285V40.7978C48.0285 41.5068 48.6031 42.0813 49.3119 42.0813H59.2938L61.163 44.4891V51.1086H57.612C56.903 51.1086 56.3285 51.6832 56.3285 52.3921C56.3285 53.1011 56.9031 53.6756 57.612 53.6756H62.4465C63.1555 53.6756 63.73 53.101 63.73 52.3921V44.0495C63.73 43.7645 63.6351 43.4873 63.4605 43.2622Z" fill="white"/>
<path d="M32.2843 44.6057H26.3802C25.6712 44.6057 25.0967 45.1803 25.0967 45.8892C25.0967 46.5981 25.6713 47.1727 26.3802 47.1727H32.2843C32.9932 47.1727 33.5677 46.5981 33.5677 45.8892C33.5678 45.1803 32.9932 44.6057 32.2843 44.6057Z" fill="white"/>
<path d="M35.2361 39.5573H24.2835C23.5746 39.5573 23 40.1318 23 40.8408C23 41.5498 23.5746 42.1243 24.2835 42.1243H35.2361C35.9451 42.1243 36.5196 41.5497 36.5196 40.8408C36.5196 40.1319 35.9451 39.5573 35.2361 39.5573Z" fill="white"/>
<path d="M37.3328 34.5088H26.3802C25.6712 34.5088 25.0967 35.0834 25.0967 35.7923C25.0967 36.5012 25.6713 37.0757 26.3802 37.0757H37.3328C38.0417 37.0757 38.6163 36.5011 38.6163 35.7923C38.6163 35.0834 38.0417 34.5088 37.3328 34.5088Z" fill="white"/>
</g>
<defs>
<clipPath id="clip0_262_1577">
<rect width="40.73" height="40.73" fill="white" transform="translate(23 23)"/>
</clipPath>
</defs>
</svg>
