<svg width="86" height="86" viewBox="0 0 86 86" fill="none" xmlns="http://www.w3.org/2000/svg">
<circle cx="43" cy="43" r="43" fill="#E54530"/>
<g clip-path="url(#clip0_262_1578)">
<path d="M62.7764 47.2406L58.7757 44.9272C58.8278 44.4081 58.854 43.8857 58.854 43.365C58.854 42.8443 58.8278 42.3219 58.7757 41.8028L62.7764 39.4894C63.5362 39.0501 63.7966 38.0771 63.3579 37.3161L58.5921 29.049C58.1537 28.2885 57.1816 28.0272 56.422 28.4667L52.4214 30.7799C51.5736 30.1664 50.6702 29.6429 49.7195 29.2144V24.591C49.7195 23.7123 49.0083 23 48.1309 23H38.5993C37.7219 23 37.0106 23.7123 37.0106 24.591V29.2143C36.06 29.6428 35.1565 30.1663 34.3088 30.7798L30.3082 28.4666C29.5483 28.0272 28.5767 28.2879 28.1381 29.049L23.3723 37.316C22.9336 38.077 23.1939 39.05 23.9537 39.4894L27.9544 41.8027C27.9024 42.3218 27.8761 42.8442 27.8761 43.365C27.8761 43.8858 27.9024 44.4081 27.9544 44.9273L23.9537 47.2406C23.1939 47.68 22.9336 48.653 23.3723 49.414L28.1381 57.6811C28.5768 58.4421 29.5484 58.7026 30.3082 58.2635L34.3088 55.9503C35.1565 56.5637 36.06 57.0873 37.0106 57.5157V62.139C37.0106 63.0177 37.7219 63.73 38.5993 63.73H48.1309C49.0083 63.73 49.7195 63.0177 49.7195 62.139V57.5157C50.6702 57.0872 51.5736 56.5637 52.4214 55.9502L56.422 58.2634C57.183 58.7034 58.1542 58.4406 58.5921 57.6811L63.3579 49.414C63.7966 48.653 63.5362 47.6799 62.7764 47.2406ZM56.6349 54.7122L53.0844 52.6592C52.5061 52.3249 51.7809 52.3884 51.2694 52.8179C50.1672 53.7434 48.928 54.4615 47.5862 54.9519C46.9593 55.181 46.5423 55.7781 46.5423 56.4465V60.548H40.1878V56.4464C40.1878 55.7781 39.7707 55.181 39.1439 54.9518C37.8021 54.4613 36.5629 53.7434 35.4608 52.8179C34.9492 52.3883 34.2241 52.3248 33.6458 52.6592L30.0953 54.7121L26.9181 49.2007L30.4666 47.1489C31.0439 46.8151 31.3517 46.1557 31.2372 45.4979C31.1152 44.7967 31.0533 44.079 31.0533 43.3649C31.0533 42.6508 31.1152 41.9332 31.2372 41.232C31.3517 40.5742 31.0439 39.9148 30.4666 39.581L26.9181 37.5292L30.0953 32.0178L33.6458 34.0708C34.224 34.4051 34.9492 34.3417 35.4608 33.9121C36.5629 32.9865 37.8022 32.2685 39.1439 31.7781C39.7708 31.549 40.1878 30.9519 40.1878 30.2835V26.182H46.5423V30.2836C46.5423 30.9519 46.9593 31.549 47.5862 31.7782C48.928 32.2687 50.1672 32.9866 51.2694 33.9121C51.7811 34.3418 52.5063 34.4053 53.0844 34.0708L56.6349 32.0179L59.812 37.5293L56.2636 39.5811C55.6862 39.9149 55.3784 40.5743 55.4929 41.232C55.6149 41.9335 55.6768 42.6511 55.6768 43.365C55.6768 44.0789 55.6149 44.7965 55.4929 45.498C55.3785 46.1558 55.6863 46.8151 56.2636 47.1489L59.812 49.2007L56.6349 54.7122ZM44.9546 40.6102L49.1144 38.2086C49.8753 37.7692 50.8484 38.0299 51.2877 38.7909C51.7271 39.5519 51.4663 40.525 50.7054 40.9642L46.5471 43.365C46.5471 45.1196 45.1197 46.547 43.3651 46.547C41.6105 46.547 40.1831 45.1196 40.1831 43.365C40.1831 41.6104 41.6105 40.183 43.3651 40.183C43.9438 40.183 44.4865 40.339 44.9546 40.6102ZM51.4863 47.5739C49.9019 50.6207 46.7901 52.5133 43.3651 52.5133C38.3207 52.5133 34.2167 48.4094 34.2167 43.365C34.2167 38.3206 38.3207 34.2167 43.3651 34.2167C44.2438 34.2167 44.9561 34.929 44.9561 35.8077C44.9561 36.6864 44.2438 37.3987 43.3651 37.3987C40.0753 37.3987 37.3988 40.0752 37.3988 43.365C37.3988 46.6548 40.0753 49.3313 43.3651 49.3313C45.5985 49.3313 47.6285 48.0953 48.6632 46.1058C49.0686 45.3262 50.0293 45.023 50.8088 45.4283C51.5883 45.8336 51.8917 46.7943 51.4863 47.5739V47.5739Z" fill="white"/>
</g>
<defs>
<clipPath id="clip0_262_1578">
<rect width="40.73" height="40.73" fill="white" transform="translate(23 23)"/>
</clipPath>
</defs>
</svg>
