<svg width="40" height="40" viewBox="0 0 40 40" fill="none" xmlns="http://www.w3.org/2000/svg">
<path d="M8.43687 6.84338C6.28062 7.49963 4.34312 9.15588 3.24937 11.2496C2.40562 12.8746 2.43687 16.6246 3.34312 18.3121C4.59312 20.6871 8.40562 23.2496 9.84312 22.6871C10.6869 22.3746 10.2494 21.8434 8.68687 21.2496C6.46812 20.4059 5.43687 19.4996 4.49937 17.6559C2.84312 14.2496 4.12437 10.4371 7.46812 8.68713C9.68687 7.53088 11.4994 7.53088 13.7806 8.65588C15.9681 9.78088 17.1556 11.4684 17.3744 13.7809C17.6869 17.0621 15.0931 24.8746 11.8431 30.2184C10.6244 32.2496 10.3431 32.9684 10.6244 33.2496C11.7181 34.3121 16.1556 25.4684 17.9994 18.5934C18.9056 15.1559 18.9056 13.0934 17.9994 11.2184C16.3744 7.78088 11.9681 5.78088 8.43687 6.84338Z" fill="#E54530"/>
<path d="M27.1869 6.84341C24.9681 7.56216 23.0931 9.15591 21.9994 11.2497C21.1556 12.8747 21.1869 16.6247 22.0931 18.3122C23.3431 20.6872 27.1556 23.2496 28.5931 22.6871C29.4369 22.3746 28.9994 21.8434 27.4369 21.2497C25.2181 20.4059 24.1869 19.4997 23.2494 17.6559C20.2494 11.4684 27.1244 5.34341 33.0306 8.93716C35.2181 10.2809 36.3744 12.5622 36.1244 15.1872C35.8119 18.9684 33.1244 25.9996 30.0931 31.0309C29.2494 32.4371 29.0619 32.9371 29.3744 33.2184C29.9056 33.7496 30.9056 32.4059 32.9369 28.4371C35.5306 23.3746 37.4994 17.2497 37.4994 14.3122C37.4681 11.7184 35.5306 8.74966 32.9681 7.43716C31.6244 6.74966 28.4681 6.40591 27.1869 6.84341Z" fill="#E54530"/>
</svg>
