<svg width="40" height="40" viewBox="0 0 40 40" fill="none" xmlns="http://www.w3.org/2000/svg">
<path d="M8.43687 6.84326C6.28062 7.49951 4.34312 9.15576 3.24937 11.2495C2.40562 12.8745 2.43687 16.6245 3.34312 18.312C4.59312 20.687 8.40562 23.2495 9.84312 22.687C10.6869 22.3745 10.2494 21.8433 8.68687 21.2495C6.46812 20.4058 5.43687 19.4995 4.49937 17.6558C2.84312 14.2495 4.12437 10.437 7.46812 8.68701C9.68687 7.53076 11.4994 7.53076 13.7806 8.65576C15.9681 9.78076 17.1556 11.4683 17.3744 13.7808C17.6869 17.062 15.0931 24.8745 11.8431 30.2183C10.6244 32.2495 10.3431 32.9683 10.6244 33.2495C11.7181 34.312 16.1556 25.4683 17.9994 18.5933C18.9056 15.1558 18.9056 13.0933 17.9994 11.2183C16.3744 7.78076 11.9681 5.78076 8.43687 6.84326Z" fill="#3D3D3D"/>
<path d="M27.1869 6.84327C24.9681 7.56202 23.0931 9.15577 21.9994 11.2495C21.1556 12.8745 21.1869 16.6245 22.0931 18.312C23.3431 20.687 27.1556 23.2495 28.5931 22.687C29.4369 22.3745 28.9994 21.8433 27.4369 21.2495C25.2181 20.4058 24.1869 19.4995 23.2494 17.6558C20.2494 11.4683 27.1244 5.34327 33.0306 8.93702C35.2181 10.2808 36.3744 12.562 36.1244 15.187C35.8119 18.9683 33.1244 25.9995 30.0931 31.0308C29.2494 32.437 29.0619 32.937 29.3744 33.2183C29.9056 33.7495 30.9056 32.4058 32.9369 28.437C35.5306 23.3745 37.4994 17.2495 37.4994 14.312C37.4681 11.7183 35.5306 8.74952 32.9681 7.43702C31.6244 6.74952 28.4681 6.40577 27.1869 6.84327Z" fill="#3D3D3D"/>
</svg>
